<svg xmlns="http://www.w3.org/2000/svg" fill="none" viewBox="0 0 1135 1431"><mask id="a" width="1490" height="1498" x="0" y="0" maskUnits="userSpaceOnUse" style="mask-type:luminance"><path fill="#fff" d="M0 0h1490v1498H0V0Z"/></mask><g fill="#333" fill-opacity=".2" mask="url(#a)"><path d="M883.952 691.015a1.211 1.211 0 0 1 .696-1.56 1.206 1.206 0 0 1 1.552.704 1.213 1.213 0 0 1-.698 1.56 1.201 1.201 0 0 1-1.55-.704ZM901.971 665.554a2.42 2.42 0 0 1 1.734-2.941 2.406 2.406 0 0 1 2.928 1.742 2.424 2.424 0 0 1-1.736 2.944 2.407 2.407 0 0 1-2.926-1.745ZM925.623 644.128c-.271-1.983 1.105-3.818 3.079-4.09a3.607 3.607 0 0 1 4.065 3.091 3.62 3.62 0 0 1-3.074 4.092 3.61 3.61 0 0 1-4.07-3.093ZM954.199 627.665c-.065-2.669 2.031-4.891 4.688-4.959 2.652-.07 4.86 2.037 4.927 4.709.07 2.671-2.029 4.888-4.681 4.958-2.657.068-4.862-2.039-4.934-4.708ZM986.857 616.976c.288-3.325 3.203-5.789 6.509-5.5 3.305.29 5.753 3.216 5.468 6.541-.286 3.326-3.201 5.788-6.504 5.503-3.31-.29-5.759-3.218-5.473-6.544ZM1022.64 612.742c.78-3.927 4.59-6.469 8.49-5.68 3.91.789 6.44 4.616 5.65 8.541-.78 3.927-4.59 6.471-8.49 5.678-3.91-.789-6.44-4.612-5.65-8.539ZM1060.49 615.496c1.42-4.449 6.16-6.896 10.59-5.468 4.42 1.431 6.86 6.197 5.43 10.643-1.42 4.452-6.15 6.899-10.58 5.471-4.43-1.431-6.86-6.197-5.44-10.646ZM1099.28 625.62c2.19-4.871 7.88-7.041 12.72-4.849 4.84 2.195 7 7.917 4.82 12.786-2.18 4.871-7.87 7.043-12.72 4.853-4.84-2.194-7-7.922-4.82-12.79ZM1137.83 643.314c3.05-5.169 9.69-6.871 14.83-3.808 5.14 3.066 6.83 9.735 3.79 14.905-3.05 5.168-9.69 6.876-14.83 3.81-5.14-3.066-6.84-9.739-3.79-14.907ZM879.862 709.96a1.212 1.212 0 0 1 .932-1.433 1.198 1.198 0 0 1 1.42.941 1.198 1.198 0 0 1-.931 1.423 1.193 1.193 0 0 1-1.421-.931ZM901.621 687.642a2.414 2.414 0 0 1 2.171-2.631 2.408 2.408 0 0 1 2.62 2.182 2.422 2.422 0 0 1-2.173 2.634 2.412 2.412 0 0 1-2.618-2.185ZM928.315 670.2a3.62 3.62 0 0 1 3.678-3.557c1.989.04 3.573 1.692 3.536 3.695-.038 2.002-1.684 3.595-3.676 3.555a3.616 3.616 0 0 1-3.538-3.693ZM959.103 658.436c.345-2.649 2.764-4.514 5.401-4.162 2.628.35 4.48 2.779 4.133 5.425-.348 2.647-2.767 4.514-5.397 4.162-2.634-.352-4.485-2.779-4.137-5.425ZM993.02 653.013c.803-3.243 4.063-5.215 7.28-4.406 3.22.801 5.19 4.079 4.39 7.317-.8 3.241-4.06 5.216-7.284 4.415-3.223-.807-5.183-4.088-4.386-7.326ZM1029.02 654.459c1.39-3.755 5.54-5.665 9.27-4.274 3.74 1.395 5.64 5.572 4.25 9.325a7.195 7.195 0 0 1-9.27 4.274c-3.73-1.398-5.63-5.57-4.25-9.325ZM1065.98 663.132c2.09-4.172 7.16-5.842 11.31-3.735 4.14 2.11 5.81 7.198 3.71 11.37-2.1 4.169-7.16 5.842-11.31 3.735-4.15-2.11-5.81-7.198-3.71-11.37ZM1102.72 679.231c2.91-4.467 8.87-5.715 13.31-2.787 4.45 2.929 5.68 8.919 2.77 13.388-2.9 4.466-8.87 5.714-13.31 2.793-4.44-2.931-5.68-8.928-2.77-13.394ZM1138.04 702.772c3.81-4.622 10.64-5.266 15.23-1.428 4.6 3.832 5.24 10.688 1.43 15.317-3.82 4.626-10.64 5.265-15.24 1.428-4.6-3.833-5.24-10.693-1.42-15.317ZM872.877 728.023a1.205 1.205 0 0 1 1.14-1.268 1.209 1.209 0 0 1 1.261 1.151 1.212 1.212 0 0 1-1.145 1.268 1.202 1.202 0 0 1-1.256-1.151ZM897.839 709.405a2.405 2.405 0 0 1 2.553-2.259 2.414 2.414 0 0 1 2.247 2.566 2.406 2.406 0 0 1-2.555 2.257 2.41 2.41 0 0 1-2.245-2.564ZM926.919 696.375c.348-1.97 2.223-3.288 4.184-2.931 1.96.347 3.266 2.235 2.918 4.205-.347 1.969-2.222 3.285-4.182 2.928a3.621 3.621 0 0 1-2.92-4.202ZM959.158 689.597c.757-2.559 3.429-4.022 5.979-3.261 2.543.759 3.996 3.451 3.239 6.012a4.809 4.809 0 0 1-5.978 3.261c-2.545-.759-3.995-3.453-3.24-6.012ZM993.497 689.572c1.299-3.071 4.828-4.507 7.883-3.203 3.06 1.298 4.49 4.846 3.19 7.919-1.29 3.071-4.82 4.511-7.874 3.213-3.062-1.306-4.488-4.851-3.199-7.929ZM1028.83 696.667c1.96-3.49 6.36-4.726 9.83-2.763 3.47 1.965 4.7 6.386 2.74 9.879a7.186 7.186 0 0 1-9.82 2.759c-3.47-1.965-4.7-6.387-2.75-9.875ZM1063.99 711.048a8.38 8.38 0 0 1 11.75-1.912c3.76 2.731 4.61 8.022 1.89 11.811a8.37 8.37 0 0 1-11.74 1.91c-3.78-2.733-4.63-8.021-1.9-11.809ZM1097.77 732.722c3.57-3.95 9.65-4.247 13.58-.657 3.94 3.593 4.23 9.705.66 13.657a9.585 9.585 0 0 1-13.59.664c-3.93-3.588-4.22-9.709-.65-13.664ZM1129 761.528c4.48-3.964 11.32-3.523 15.26.984 3.95 4.516 3.51 11.387-.98 15.354a10.777 10.777 0 0 1-15.27-.983c-3.94-4.512-3.51-11.388.99-15.355ZM863.162 744.768a1.209 1.209 0 0 1 1.326-1.073 1.209 1.209 0 0 1 1.065 1.335 1.203 1.203 0 1 1-2.391-.262ZM890.717 730.305a2.402 2.402 0 0 1 2.873-1.83 2.415 2.415 0 0 1 1.818 2.889 2.406 2.406 0 0 1-2.873 1.827 2.416 2.416 0 0 1-1.818-2.886ZM921.468 722.009a3.6 3.6 0 0 1 4.587-2.242 3.633 3.633 0 0 1 2.227 4.613 3.604 3.604 0 0 1-4.589 2.242 3.629 3.629 0 0 1-2.225-4.613ZM954.362 720.381a4.8 4.8 0 0 1 6.415-2.277c2.394 1.151 3.409 4.037 2.262 6.446a4.794 4.794 0 0 1-6.409 2.277c-2.397-1.151-3.41-4.032-2.268-6.446ZM988.287 725.764a5.995 5.995 0 0 1 8.282-1.93c2.816 1.765 3.671 5.495 1.917 8.329a6 6 0 0 1-8.282 1.929c-2.816-1.77-3.675-5.495-1.917-8.328ZM1022.08 738.327a7.187 7.187 0 0 1 10.13-1.186c3.13 2.487 3.65 7.05 1.18 10.186a7.183 7.183 0 0 1-10.13 1.186c-3.13-2.487-3.65-7.053-1.18-10.186ZM1054.56 758.055a8.397 8.397 0 0 1 11.91-.04c3.29 3.294 3.31 8.651.03 11.967-3.27 3.316-8.6 3.331-11.9.04-3.3-3.291-3.32-8.651-.04-11.967ZM1084.55 784.777a9.597 9.597 0 0 1 13.53 1.488c3.32 4.165 2.66 10.249-1.48 13.595a9.58 9.58 0 0 1-13.52-1.483c-3.33-4.17-2.67-10.254 1.47-13.6ZM1110.91 818.14c5.05-3.213 11.74-1.7 14.93 3.376 3.2 5.076 1.7 11.797-3.35 15.01-5.05 3.213-11.74 1.7-14.93-3.376-3.2-5.076-1.7-11.797 3.35-15.01ZM1132.54 857.615c5.97-2.916 13.16-.409 16.06 5.593 2.9 6.002.42 13.234-5.56 16.156-5.97 2.916-13.17.409-16.07-5.593-2.89-6.004-.41-13.24 5.57-16.156ZM850.966 759.776a1.2 1.2 0 1 1 2.317.634 1.198 1.198 0 0 1-1.472.849 1.203 1.203 0 0 1-.845-1.483ZM880.431 749.824a2.398 2.398 0 0 1 3.122-1.351 2.42 2.42 0 0 1 1.348 3.136 2.403 2.403 0 0 1-3.124 1.356 2.423 2.423 0 0 1-1.346-3.141ZM912.091 746.468a3.6 3.6 0 0 1 4.88-1.49 3.636 3.636 0 0 1 1.485 4.906 3.596 3.596 0 0 1-4.88 1.49 3.635 3.635 0 0 1-1.485-4.906ZM944.836 750.034a4.791 4.791 0 0 1 6.688-1.239 4.843 4.843 0 0 1 1.234 6.719 4.792 4.792 0 0 1-6.685 1.248 4.857 4.857 0 0 1-1.237-6.728ZM977.505 760.689a5.987 5.987 0 0 1 8.48-.606 6.067 6.067 0 0 1 .601 8.526 5.992 5.992 0 0 1-8.483.604 6.065 6.065 0 0 1-.598-8.524ZM1008.93 778.403c2.93-2.711 7.49-2.514 10.19.43 2.7 2.946 2.51 7.535-.42 10.246a7.19 7.19 0 0 1-10.2-.424c-2.69-2.951-2.5-7.535.43-10.252ZM1037.94 803.006c3.75-2.762 9.02-1.94 11.76 1.832 2.74 3.77 1.93 9.065-1.82 11.827a8.385 8.385 0 0 1-11.76-1.835c-2.75-3.775-1.93-9.066 1.82-11.824ZM1063.41 834.116c4.61-2.649 10.48-1.038 13.12 3.593 2.63 4.639 1.04 10.544-3.57 13.195-4.62 2.654-10.49 1.044-13.13-3.593-2.64-4.636-1.04-10.543 3.58-13.195ZM1084.25 871.214c5.49-2.379 11.85.168 14.22 5.683 2.36 5.515-.16 11.916-5.65 14.296-5.49 2.379-11.86-.165-14.22-5.68-2.37-5.52.16-11.919 5.65-14.299ZM1099.47 913.605c6.35-1.947 13.06 1.663 14.99 8.045 1.93 6.388-1.65 13.142-8 15.082-6.36 1.942-13.07-1.668-15-8.049-1.93-6.389 1.65-13.143 8.01-15.078ZM1108.16 960.44c7.18-1.335 14.08 3.438 15.41 10.661 1.33 7.218-3.42 14.156-10.6 15.487-7.18 1.336-14.08-3.433-15.41-10.653-1.33-7.218 3.42-14.157 10.6-15.495ZM1109.55 1010.76c7.95-.56 14.85 5.46 15.41 13.45.56 7.99-5.43 14.93-13.37 15.49-7.95.57-14.85-5.46-15.41-13.45-.56-7.98 5.43-14.93 13.37-15.49ZM1103 1063.47c8.63.36 15.33 7.68 14.97 16.35-.36 8.67-7.64 15.41-16.27 15.05-8.62-.36-15.32-7.68-14.97-16.35.36-8.67 7.65-15.41 16.27-15.05ZM1088.03 1117.38c9.18 1.43 15.47 10.08 14.05 19.31-1.42 9.24-10.02 15.57-19.21 14.13-9.19-1.43-15.48-10.08-14.06-19.31 1.43-9.24 10.03-15.56 19.22-14.13ZM836.583 772.683c.27-.609.983-.881 1.592-.609.606.28.871.996.601 1.601-.274.609-.986.881-1.592.609a1.212 1.212 0 0 1-.601-1.601ZM867.235 767.485a2.398 2.398 0 0 1 3.295-.844 2.433 2.433 0 0 1 .839 3.319 2.4 2.4 0 0 1-3.293.841 2.425 2.425 0 0 1-.841-3.316ZM899.026 769.153a3.595 3.595 0 0 1 5.054-.706 3.642 3.642 0 0 1 .703 5.08 3.6 3.6 0 0 1-5.054.707 3.642 3.642 0 0 1-.703-5.081ZM930.81 777.829a4.797 4.797 0 0 1 6.805-.18 4.857 4.857 0 0 1 .171 6.836 4.789 4.789 0 0 1-6.797.175 4.85 4.85 0 0 1-.179-6.831ZM961.42 793.481a5.997 5.997 0 0 1 8.473.741c2.133 2.557 1.808 6.369-.733 8.514a6 6 0 0 1-8.473-.734 6.078 6.078 0 0 1 .733-8.521ZM989.7 815.928c3.318-2.219 7.798-1.308 10 2.022 2.21 3.336 1.31 7.842-2.011 10.057a7.188 7.188 0 0 1-10-2.025c-2.206-3.335-1.307-7.837 2.011-10.054ZM1014.53 844.785c4.13-2.135 9.2-.497 11.33 3.662 2.12 4.155.49 9.255-3.64 11.393-4.14 2.134-9.21.496-11.33-3.663-2.13-4.155-.5-9.255 3.64-11.392ZM1034.84 879.518c4.97-1.89 10.52.624 12.4 5.618 1.89 4.993-.61 10.573-5.58 12.468-4.97 1.893-10.52-.619-12.41-5.612-1.88-4.999.62-10.581 5.59-12.474ZM1049.66 919.438c5.78-1.488 11.67 2.027 13.15 7.844 1.48 5.822-2.01 11.747-7.8 13.235-5.79 1.488-11.68-2.025-13.16-7.847-1.48-5.822 2.01-11.747 7.81-13.232ZM1058.09 963.698c6.58-.921 12.65 3.698 13.56 10.309.91 6.611-3.68 12.718-10.26 13.634-6.57.917-12.65-3.695-13.56-10.308-.91-6.611 3.68-12.718 10.26-13.635ZM1059.39 1011.33c7.3-.19 13.37 5.61 13.56 12.95.19 7.34-5.58 13.44-12.88 13.63-7.3.19-13.38-5.61-13.56-12.95-.19-7.34 5.57-13.45 12.88-13.63ZM1052.93 1061.25c7.94.69 13.82 7.72 13.13 15.7-.69 7.98-7.69 13.89-15.62 13.2-7.94-.69-13.81-7.72-13.13-15.7.69-7.99 7.68-13.89 15.62-13.2ZM1038.26 1112.28c8.46 1.71 13.94 10 12.24 18.5-1.7 8.51-9.94 14.02-18.41 12.3-8.46-1.71-13.94-9.99-12.23-18.5 1.7-8.51 9.94-14.02 18.4-12.3ZM1015.08 1163.16c8.85 2.87 13.72 12.4 10.88 21.29-2.85 8.9-12.32 13.8-21.18 10.94-8.847-2.86-13.716-12.39-10.875-21.29 2.845-8.9 12.325-13.79 21.175-10.94ZM820.369 783.169a1.198 1.198 0 0 1 1.664-.347 1.21 1.21 0 0 1 .345 1.673c-.36.559-1.11.712-1.664.345a1.21 1.21 0 0 1-.345-1.671ZM851.451 782.86a2.39 2.39 0 0 1 3.384-.315 2.426 2.426 0 0 1 .316 3.403 2.4 2.4 0 0 1-3.388.317 2.427 2.427 0 0 1-.312-3.405ZM882.592 789.503a3.588 3.588 0 0 1 5.1.103 3.63 3.63 0 0 1-.094 5.118 3.586 3.586 0 0 1-5.103-.097 3.637 3.637 0 0 1 .097-5.124ZM912.638 803.068a4.793 4.793 0 0 1 6.744.899 4.848 4.848 0 0 1-.894 6.776 4.789 4.789 0 0 1-6.742-.897 4.853 4.853 0 0 1 .892-6.778ZM940.433 823.348a5.996 5.996 0 0 1 8.252 2.06c1.711 2.861.795 6.571-2.051 8.294-2.841 1.72-6.536.799-8.249-2.057-1.711-2.859-.795-6.574 2.048-8.297ZM964.872 849.963c3.623-1.668 7.904-.068 9.565 3.57 1.659 3.643.068 7.949-3.553 9.617-3.623 1.668-7.905.068-9.563-3.575-1.659-3.638-.068-7.944 3.551-9.612ZM984.905 882.372c4.415-1.463 9.171.956 10.621 5.393 1.45 4.436-.951 9.225-5.369 10.678-4.418 1.463-9.171-.954-10.624-5.393-1.45-4.441.956-9.22 5.372-10.678ZM999.562 919.869c5.198-1.086 10.288 2.27 11.378 7.5 1.08 5.228-2.26 10.349-7.46 11.435-5.2 1.089-10.293-2.267-11.376-7.495-1.085-5.225 2.257-10.346 7.458-11.44ZM1007.98 961.626c5.95-.557 11.22 3.843 11.78 9.822.55 5.982-3.82 11.283-9.77 11.844-5.95.555-11.223-3.837-11.777-9.822-.556-5.982 3.817-11.282 9.767-11.844ZM1009.42 1006.67c6.64.13 11.92 5.64 11.8 12.32-.13 6.67-5.62 11.98-12.25 11.85-6.64-.13-11.927-5.65-11.795-12.32.127-6.67 5.615-11.98 12.245-11.85ZM1003.3 1053.92c7.24.96 12.33 7.65 11.37 14.92-.95 7.28-7.6 12.4-14.838 11.44-7.241-.96-12.337-7.64-11.381-14.92.959-7.28 7.604-12.41 14.849-11.44ZM989.154 1102.21c7.735 1.93 12.446 9.8 10.524 17.57-1.922 7.78-9.749 12.51-17.482 10.58-7.734-1.93-12.444-9.8-10.522-17.57 1.919-7.78 9.747-12.51 17.48-10.58ZM966.724 1150.3c8.091 3.02 12.213 12.07 9.206 20.2-3.005 8.14-11.999 12.28-20.095 9.26-8.088-3.02-12.213-12.07-9.206-20.21 3.005-8.13 12-12.27 20.095-9.25ZM935.909 1196.92c8.296 4.22 11.624 14.39 7.432 22.74-4.194 8.34-14.316 11.68-22.615 7.46-8.295-4.21-11.622-14.39-7.431-22.73 4.195-8.34 14.317-11.68 22.614-7.47ZM802.723 790.979a1.197 1.197 0 0 1 1.698-.087c.492.449.529 1.215.08 1.712a1.197 1.197 0 0 1-1.696.078 1.204 1.204 0 0 1-.082-1.703ZM833.469 795.558a2.395 2.395 0 0 1 3.394.22 2.43 2.43 0 0 1-.218 3.415 2.406 2.406 0 0 1-3.395-.22 2.434 2.434 0 0 1 .219-3.415ZM863.197 807.018a3.59 3.59 0 0 1 5.019.903 3.636 3.636 0 0 1-.892 5.046 3.598 3.598 0 0 1-5.024-.901 3.641 3.641 0 0 1 .897-5.048ZM890.759 825.143a4.797 4.797 0 0 1 6.522 1.945c1.264 2.347.399 5.283-1.938 6.554-2.331 1.273-5.252.399-6.518-1.945a4.85 4.85 0 0 1 1.934-6.554ZM915.059 849.543c3.077-1.251 6.583.24 7.83 3.331 1.244 3.098-.241 6.619-3.318 7.872-3.075 1.253-6.583-.24-7.828-3.331-1.246-3.096.236-6.618 3.316-7.872ZM935.055 879.676c3.836-1.079 7.817 1.175 8.887 5.03 1.076 3.858-1.167 7.857-5.001 8.941-3.839 1.076-7.82-1.181-8.89-5.033-1.071-3.863 1.167-7.862 5.004-8.938ZM949.798 914.834c4.587-.747 8.91 2.389 9.65 7.003.743 4.606-2.376 8.955-6.963 9.702-4.589.746-8.91-2.389-9.653-7.001-.742-4.614 2.377-8.958 6.966-9.704ZM958.437 954.176c5.307-.254 9.815 3.863 10.07 9.195.254 5.336-3.836 9.865-9.143 10.124-5.307.258-9.814-3.857-10.07-9.192-.258-5.333 3.839-9.87 9.143-10.127ZM960.26 996.744c5.96.387 10.485 5.556 10.102 11.556-.382 5.99-5.527 10.54-11.49 10.16-5.965-.39-10.492-5.56-10.107-11.56.382-6 5.528-10.54 11.495-10.156ZM954.675 1041.46c6.536 1.17 10.89 7.45 9.73 14.02-1.167 6.57-7.41 10.95-13.949 9.78-6.531-1.17-10.889-7.45-9.727-14.02 1.164-6.57 7.408-10.95 13.946-9.78ZM941.27 1087.16c7.001 2.09 10.994 9.49 8.915 16.53-2.076 7.04-9.439 11.05-16.437 8.96-7.003-2.09-10.996-9.49-8.92-16.53 2.079-7.03 9.439-11.05 16.442-8.96ZM919.787 1132.63c7.338 3.12 10.768 11.64 7.661 19.01-3.109 7.38-11.577 10.83-18.913 7.7-7.338-3.12-10.765-11.63-7.656-19.01 3.104-7.38 11.572-10.82 18.908-7.7ZM890.148 1176.61c7.525 4.26 10.187 13.84 5.955 21.4-4.236 7.56-13.767 10.23-21.289 5.98-7.522-4.26-10.187-13.84-5.953-21.4 4.237-7.56 13.765-10.25 21.287-5.98ZM852.461 1217.8c7.54 5.47 9.241 16.05 3.805 23.63-5.444 7.58-15.963 9.29-23.5 3.82-7.537-5.47-9.241-16.05-3.802-23.62 5.441-7.58 15.958-9.29 23.497-3.83ZM784.078 795.91a1.2 1.2 0 0 1 1.688.185 1.213 1.213 0 0 1-.183 1.702 1.194 1.194 0 0 1-1.689-.184 1.215 1.215 0 0 1 .184-1.703ZM813.734 805.272a2.4 2.4 0 0 1 3.317.752 2.424 2.424 0 0 1-.745 3.335 2.404 2.404 0 0 1-3.32-.751 2.431 2.431 0 0 1 .748-3.336ZM841.311 821.266a3.603 3.603 0 0 1 4.82 1.678c.869 1.8.122 3.97-1.666 4.848a3.603 3.603 0 0 1-4.823-1.677c-.869-1.805-.124-3.975 1.669-4.849ZM865.712 843.504a4.806 4.806 0 0 1 6.142 2.948 4.845 4.845 0 0 1-2.933 6.17 4.805 4.805 0 0 1-6.137-2.951c-.886-2.517.428-5.276 2.928-6.167ZM885.919 871.424c3.236-.751 6.464 1.273 7.212 4.527.75 3.245-1.264 6.493-4.498 7.25-3.233.756-6.464-1.273-7.214-4.522-.747-3.25 1.264-6.498 4.5-7.255ZM900.981 904.33c3.956-.464 7.537 2.389 7.996 6.369.462 3.977-2.377 7.578-6.335 8.039-3.956.46-7.537-2.389-7.996-6.366-.457-3.98 2.376-7.58 6.335-8.042ZM910.072 941.376c4.649-.015 8.426 3.76 8.441 8.431.017 4.671-3.74 8.474-8.386 8.489-4.652.015-8.429-3.76-8.444-8.432-.015-4.676 3.74-8.473 8.389-8.488ZM912.483 981.595c5.28.581 9.092 5.355 8.516 10.665-.579 5.311-5.327 9.14-10.604 8.56-5.282-.58-9.097-5.357-8.52-10.662.576-5.31 5.326-9.143 10.608-8.563ZM907.658 1023.93c5.829 1.31 9.492 7.13 8.183 12.99-1.311 5.86-7.1 9.55-12.931 8.23-5.831-1.32-9.496-7.14-8.185-13 1.311-5.87 7.1-9.55 12.933-8.22ZM895.185 1067.21c6.275 2.18 9.6 9.07 7.43 15.37-2.173 6.31-9.022 9.65-15.298 7.47-6.273-2.18-9.6-9.07-7.427-15.38 2.173-6.3 9.019-9.65 15.295-7.46ZM874.834 1110.24c6.59 3.17 9.384 11.11 6.235 17.73-3.149 6.62-11.041 9.43-17.631 6.27-6.591-3.17-9.385-11.1-6.236-17.73 3.146-6.62 11.041-9.43 17.632-6.27ZM846.541 1151.77c6.76 4.24 8.821 13.19 4.607 19.99-4.217 6.79-13.117 8.86-19.877 4.62-6.76-4.23-8.821-13.18-4.607-19.97 4.217-6.8 13.115-8.87 19.877-4.64ZM810.426 1190.55c6.765 5.38 7.907 15.27 2.55 22.07-5.359 6.8-15.19 7.95-21.957 2.56-6.765-5.39-7.907-15.27-2.548-22.08 5.359-6.8 15.188-7.94 21.955-2.55ZM766.791 1225.31c6.596 6.59 6.631 17.3.08 23.93-6.551 6.63-17.207 6.66-23.803.08-6.596-6.59-6.628-17.31-.082-23.93 6.554-6.64 17.209-6.67 23.805-.08ZM764.896 797.855a1.199 1.199 0 0 1 1.639.449 1.208 1.208 0 0 1-.447 1.648 1.2 1.2 0 0 1-1.639-.447 1.21 1.21 0 0 1 .447-1.65ZM792.732 811.764a2.397 2.397 0 0 1 3.156 1.263 2.417 2.417 0 0 1-1.256 3.178 2.4 2.4 0 0 1-3.156-1.263 2.42 2.42 0 0 1 1.256-3.178ZM817.479 831.897a3.606 3.606 0 0 1 4.499 2.419c.576 1.915-.496 3.94-2.401 4.519-1.905.587-3.921-.497-4.5-2.412-.578-1.917.494-3.942 2.402-4.526ZM838.122 857.697c2.613-.481 5.121 1.254 5.605 3.878.48 2.629-1.244 5.148-3.856 5.632-2.615.487-5.121-1.248-5.605-3.872-.482-2.629 1.244-5.151 3.856-5.638ZM853.733 888.456c3.312-.237 6.186 2.275 6.422 5.6.233 3.331-2.26 6.222-5.573 6.457-3.313.232-6.186-2.275-6.422-5.6-.233-3.336 2.26-6.222 5.573-6.457ZM863.487 923.322c3.981.168 7.075 3.551 6.909 7.55-.164 3.997-3.529 7.108-7.505 6.944-3.983-.165-7.077-3.546-6.908-7.548.166-4 3.526-7.11 7.504-6.946ZM866.703 961.344c4.592.712 7.741 5.036 7.028 9.655-.713 4.619-5.014 7.782-9.606 7.065-4.596-.716-7.738-5.04-7.027-9.659.71-4.614 5.011-7.777 9.605-7.061ZM862.827 1001.45c5.128 1.4 8.15 6.72 6.752 11.87-1.396 5.15-6.68 8.19-11.808 6.78-5.123-1.4-8.148-6.72-6.755-11.87 1.398-5.15 6.688-8.19 11.811-6.78ZM851.475 1042.5c5.551 2.21 8.265 8.54 6.06 14.12-2.205 5.58-8.496 8.31-14.051 6.09-5.555-2.22-8.269-8.54-6.062-14.13 2.205-5.58 8.498-8.3 14.053-6.08ZM832.421 1083.29c5.86 3.13 8.071 10.46 4.944 16.35-3.126 5.89-10.41 8.11-16.268 4.97-5.858-3.14-8.071-10.47-4.945-16.36 3.127-5.88 10.411-8.11 16.269-4.96ZM805.626 1122.58c6.017 4.17 7.536 12.45 3.397 18.49-4.137 6.06-12.372 7.59-18.387 3.42-6.019-4.16-7.542-12.44-3.402-18.49 4.14-6.05 12.372-7.58 18.392-3.42ZM771.219 1159.16c6.015 5.25 6.66 14.41 1.44 20.46-5.222 6.05-14.336 6.7-20.356 1.45-6.014-5.25-6.657-14.42-1.437-20.47 5.222-6.05 14.336-6.69 20.353-1.44ZM729.517 1191.77c5.84 6.39 5.43 16.33-.919 22.2-6.35 5.88-16.241 5.47-22.085-.92-5.845-6.38-5.433-16.33.919-22.2 6.353-5.88 16.236-5.47 22.085.92ZM681.009 1219.24c5.486 7.55 3.857 18.14-3.645 23.65-7.505 5.52-18.034 3.88-23.525-3.66-5.485-7.55-3.854-18.14 3.648-23.65 7.503-5.52 18.032-3.88 23.522 3.66ZM745.648 796.759a1.195 1.195 0 0 1 1.55.696 1.212 1.212 0 0 1-.698 1.561 1.198 1.198 0 0 1-1.55-.702 1.205 1.205 0 0 1 .698-1.555ZM770.976 814.875a2.395 2.395 0 0 1 2.922 1.74 2.413 2.413 0 0 1-1.733 2.941 2.4 2.4 0 0 1-2.925-1.743 2.415 2.415 0 0 1 1.736-2.938ZM792.285 838.65a3.617 3.617 0 0 1 4.07 3.096c.273 1.98-1.105 3.815-3.077 4.087a3.602 3.602 0 0 1-4.067-3.091 3.623 3.623 0 0 1 3.074-4.092ZM808.66 867.382c2.657-.067 4.865 2.037 4.932 4.711.067 2.667-2.026 4.886-4.686 4.954-2.652.067-4.862-2.038-4.929-4.712-.067-2.666 2.029-4.886 4.683-4.953ZM819.291 900.213c3.311.29 5.757 3.218 5.471 6.544-.285 3.323-3.201 5.79-6.506 5.498-3.308-.29-5.757-3.219-5.473-6.539.29-3.328 3.203-5.79 6.508-5.503ZM823.503 936.188c3.906.789 6.434 4.616 5.65 8.538-.788 3.93-4.589 6.469-8.493 5.68-3.909-.789-6.437-4.614-5.652-8.538.787-3.925 4.589-6.472 8.495-5.68ZM820.764 974.242c4.425 1.428 6.859 6.197 5.438 10.643-1.422 4.449-6.163 6.896-10.586 5.468-4.43-1.428-6.861-6.194-5.441-10.646 1.423-4.447 6.164-6.893 10.589-5.465ZM810.697 1013.24c4.842 2.2 7 7.92 4.82 12.79-2.181 4.87-7.875 7.04-12.72 4.85-4.845-2.2-7.003-7.92-4.823-12.79 2.181-4.87 7.878-7.04 12.723-4.85ZM793.095 1052c5.14 3.07 6.834 9.74 3.789 14.91-3.049 5.16-9.687 6.87-14.828 3.8-5.14-3.06-6.836-9.74-3.789-14.9 3.049-5.17 9.687-6.87 14.828-3.81ZM767.926 1089.29c5.3 4.03 6.345 11.61 2.342 16.93-4.003 5.33-11.548 6.38-16.842 2.35-5.297-4.02-6.343-11.6-2.339-16.93 4.005-5.32 11.547-6.37 16.839-2.35ZM735.347 1123.89c5.295 5.06 5.511 13.48.482 18.8-5.031 5.33-13.402 5.54-18.697.49-5.294-5.06-5.51-13.48-.482-18.8 5.029-5.32 13.4-5.54 18.697-.49ZM695.673 1154.61c5.126 6.13 4.339 15.28-1.76 20.43-6.099 5.16-15.201 4.36-20.329-1.77-5.125-6.13-4.336-15.29 1.763-20.43 6.099-5.16 15.198-4.37 20.326 1.77ZM649.409 1180.26c4.78 7.23 2.826 16.98-4.361 21.78-7.189 4.81-16.889 2.85-21.669-4.38-4.776-7.23-2.824-16.99 4.361-21.79 7.189-4.8 16.889-2.84 21.669 4.39ZM597.227 1199.76c4.244 8.32.988 18.52-7.279 22.79-8.272 4.27-18.419.99-22.665-7.32-4.247-8.32-.986-18.52 7.278-22.78 8.27-4.28 18.417-1 22.666 7.31ZM726.807 792.642a1.205 1.205 0 0 1 1.423.936 1.217 1.217 0 0 1-.934 1.436 1.207 1.207 0 0 1-1.42-.942 1.207 1.207 0 0 1 .931-1.43ZM749.003 814.523a2.404 2.404 0 0 1 2.618 2.179 2.418 2.418 0 0 1-2.171 2.634 2.408 2.408 0 0 1-2.617-2.184 2.412 2.412 0 0 1 2.17-2.629ZM766.354 841.357c1.989.04 3.574 1.697 3.534 3.697a3.607 3.607 0 0 1-3.673 3.553c-1.994-.032-3.574-1.69-3.536-3.69.039-2.005 1.683-3.598 3.675-3.56ZM778.056 872.313c2.632.345 4.485 2.779 4.139 5.425-.35 2.644-2.766 4.512-5.398 4.157-2.635-.347-4.488-2.781-4.14-5.423.348-2.649 2.764-4.511 5.399-4.159ZM783.447 906.412c3.223.804 5.185 4.082 4.385 7.318-.799 3.238-4.06 5.213-7.283 4.409-3.221-.804-5.183-4.082-4.386-7.32.8-3.241 4.066-5.211 7.284-4.407ZM782.007 942.604c3.735 1.396 5.639 5.568 4.254 9.323-1.386 3.755-5.541 5.667-9.273 4.271-3.738-1.393-5.642-5.567-4.254-9.322 1.391-3.755 5.54-5.668 9.273-4.272ZM773.382 979.762c4.15 2.105 5.811 7.198 3.715 11.365-2.098 4.169-7.159 5.842-11.309 3.737-4.147-2.112-5.811-7.198-3.715-11.367 2.096-4.174 7.159-5.842 11.309-3.735ZM757.367 1016.7c4.445 2.93 5.687 8.92 2.776 13.38-2.915 4.47-8.877 5.72-13.32 2.79-4.443-2.93-5.685-8.92-2.774-13.39 2.913-4.46 8.875-5.71 13.318-2.78ZM733.957 1052.21c4.596 3.84 5.232 10.69 1.42 15.31a10.774 10.774 0 0 1-15.238 1.43c-4.599-3.83-5.235-10.69-1.423-15.31a10.777 10.777 0 0 1 15.241-1.43ZM703.295 1085.08c4.606 4.81 4.46 12.46-.323 17.1-4.785 4.62-12.397 4.48-17.003-.33-4.602-4.81-4.455-12.47.327-17.1 4.783-4.62 12.397-4.48 16.999.33ZM665.732 1114.14c4.443 5.82 3.345 14.17-2.449 18.64-5.796 4.47-14.1 3.36-18.543-2.46-4.442-5.83-3.347-14.18 2.449-18.64 5.796-4.47 14.1-3.37 18.543 2.46ZM621.767 1138.23c4.11 6.86 1.91 15.78-4.919 19.91-6.827 4.13-15.693 1.91-19.8-4.95-4.11-6.86-1.907-15.78 4.917-19.91 6.827-4.13 15.692-1.92 19.802 4.95ZM572.08 1156.29c3.594 7.89.15 17.22-7.693 20.83-7.85 3.62-17.127.15-20.723-7.74-3.594-7.89-.149-17.22 7.698-20.83 7.85-3.61 17.123-.15 20.718 7.74ZM517.507 1167.35c2.898 8.88-1.907 18.44-10.738 21.36-8.831 2.91-18.342-1.92-21.243-10.8-2.903-8.88 1.905-18.44 10.733-21.36 8.834-2.92 18.345 1.92 21.248 10.8ZM708.838 785.621a1.198 1.198 0 0 1 1.259 1.146 1.207 1.207 0 0 1-1.145 1.268 1.203 1.203 0 0 1-1.254-1.151 1.2 1.2 0 0 1 1.14-1.263ZM727.358 810.72a2.408 2.408 0 0 1 2.245 2.564 2.406 2.406 0 0 1-2.555 2.257 2.413 2.413 0 0 1-2.245-2.564 2.406 2.406 0 0 1 2.555-2.257ZM740.316 839.954a3.624 3.624 0 0 1 2.918 4.206 3.612 3.612 0 0 1-4.182 2.936c-1.961-.352-3.268-2.236-2.918-4.209a3.606 3.606 0 0 1 4.182-2.933ZM747.059 872.365c2.545.762 3.998 3.448 3.243 6.012-.755 2.562-3.43 4.02-5.975 3.258-2.548-.761-4.003-3.452-3.246-6.012a4.808 4.808 0 0 1 5.978-3.258ZM747.081 906.894c3.055 1.304 4.487 4.849 3.191 7.92-1.294 3.073-4.823 4.511-7.88 3.208-3.057-1.301-4.484-4.846-3.193-7.919a6.002 6.002 0 0 1 7.882-3.209ZM740.028 942.414c3.472 1.965 4.701 6.387 2.747 9.88-1.954 3.485-6.355 4.723-9.824 2.758-3.472-1.964-4.704-6.386-2.749-9.879 1.957-3.485 6.355-4.724 9.826-2.759ZM725.724 977.757c3.77 2.731 4.619 8.022 1.903 11.809-2.722 3.79-7.982 4.649-11.752 1.913-3.769-2.737-4.619-8.022-1.899-11.814 2.719-3.785 7.979-4.644 11.748-1.908ZM704.161 1011.72c3.934 3.59 4.227 9.7.654 13.66-3.569 3.95-9.651 4.25-13.584.66-3.934-3.59-4.227-9.71-.658-13.66a9.579 9.579 0 0 1 13.588-.66ZM675.511 1043.11c3.944 4.51 3.507 11.38-.981 15.35a10.778 10.778 0 0 1-15.27-.98c-3.946-4.52-3.508-11.39.979-15.36a10.79 10.79 0 0 1 15.272.99ZM640.114 1070.76c3.802 5.47 2.463 13.01-2.98 16.83-5.446 3.82-12.938 2.48-16.743-3-3.797-5.47-2.463-13.01 2.983-16.83 5.446-3.82 12.94-2.48 16.74 3ZM598.491 1093.55c3.479 6.45 1.097 14.53-5.322 18.03-6.419 3.49-14.446 1.1-17.927-5.35-3.484-6.46-1.103-14.53 5.319-18.03 6.417-3.5 14.451-1.11 17.93 5.35ZM551.32 1110.43c2.992 7.42-.574 15.88-7.957 18.89-7.385 3.01-15.796-.58-18.789-8-2.99-7.43.574-15.88 7.957-18.89 7.385-3.01 15.796.57 18.789 8ZM499.436 1120.45c2.321 8.36-2.531 17.03-10.845 19.37s-16.936-2.55-19.261-10.9c-2.322-8.37 2.533-17.03 10.845-19.37 8.314-2.34 16.936 2.55 19.261 10.9ZM443.811 1122.79c1.483 9.23-4.75 17.92-13.929 19.41-9.176 1.49-17.818-4.78-19.303-14-1.485-9.23 4.754-17.92 13.924-19.41 9.181-1.49 17.821 4.78 19.308 14ZM692.184 775.859a1.198 1.198 0 0 1 1.063 1.331 1.197 1.197 0 0 1-1.323 1.068 1.21 1.21 0 0 1-1.066-1.33 1.2 1.2 0 0 1 1.326-1.069ZM706.57 803.557a2.417 2.417 0 0 1 1.818 2.891 2.405 2.405 0 0 1-2.873 1.828 2.424 2.424 0 0 1-1.82-2.891 2.404 2.404 0 0 1 2.875-1.828ZM714.822 834.471c1.88.654 2.879 2.721 2.226 4.614a3.604 3.604 0 0 1-4.587 2.242 3.635 3.635 0 0 1-2.228-4.617 3.602 3.602 0 0 1 4.589-2.239ZM716.437 867.542c2.396 1.151 3.414 4.039 2.267 6.451a4.799 4.799 0 0 1-6.41 2.28c-2.398-1.151-3.414-4.04-2.269-6.447a4.8 4.8 0 0 1 6.412-2.284ZM711.088 901.654c2.816 1.765 3.672 5.49 1.914 8.324a5.992 5.992 0 0 1-8.279 1.93c-2.819-1.766-3.676-5.496-1.92-8.329a5.994 5.994 0 0 1 8.285-1.925ZM698.594 935.626c3.121 2.487 3.645 7.05 1.175 10.186a7.188 7.188 0 0 1-10.135 1.186c-3.124-2.487-3.648-7.053-1.175-10.191a7.193 7.193 0 0 1 10.135-1.181ZM678.963 968.282c3.3 3.291 3.318 8.651.042 11.967a8.385 8.385 0 0 1-11.9.035c-3.298-3.293-3.318-8.646-.042-11.962a8.38 8.38 0 0 1 11.9-.04ZM652.384 998.437c3.325 4.163 2.662 10.253-1.48 13.593a9.586 9.586 0 0 1-13.519-1.48c-3.328-4.17-2.665-10.26 1.475-13.601 4.145-3.343 10.196-2.676 13.524 1.488ZM619.199 1024.93c3.196 5.08 1.691 11.8-3.355 15.01-5.048 3.22-11.733 1.71-14.929-3.37-3.199-5.08-1.694-11.8 3.354-15.01 5.052-3.21 11.737-1.7 14.93 3.37ZM579.935 1046.68c2.906 6 .413 13.23-5.56 16.15-5.972 2.91-13.167.41-16.067-5.59-2.901-6.01-.41-13.24 5.565-16.15 5.97-2.92 13.164-.42 16.062 5.59ZM535.283 1062.64c2.431 6.92-1.178 14.52-8.061 16.97-6.887 2.45-14.443-1.18-16.877-8.11-2.436-6.92 1.172-14.52 8.061-16.97 6.881-2.44 14.44 1.19 16.877 8.11ZM486.063 1071.89c1.8 7.81-3.035 15.6-10.795 17.41-7.763 1.81-15.511-3.06-17.312-10.86-1.797-7.8 3.038-15.6 10.798-17.4 7.76-1.81 15.511 3.05 17.309 10.85ZM433.26 1073.63c.993 8.63-5.151 16.42-13.723 17.42-8.575 1-16.333-5.17-17.329-13.79-.993-8.62 5.151-16.43 13.726-17.42 8.572-1 16.327 5.17 17.326 13.79ZM377.956 1067.19c.03 9.35-7.48 16.95-16.778 16.98-9.295.03-16.854-7.52-16.886-16.86-.03-9.35 7.482-16.95 16.775-16.98 9.3-.03 16.857 7.52 16.889 16.86ZM677.255 763.596c.64.169 1.018.833.844 1.48a1.202 1.202 0 1 1-2.322-.632 1.193 1.193 0 0 1 1.478-.848ZM687.153 793.218a2.42 2.42 0 0 1 1.346 3.136 2.4 2.4 0 0 1-3.124 1.356 2.421 2.421 0 0 1-1.346-3.141 2.401 2.401 0 0 1 3.124-1.351ZM690.493 825.046a3.636 3.636 0 0 1 1.48 4.906 3.587 3.587 0 0 1-4.877 1.49 3.629 3.629 0 0 1-1.485-4.903 3.603 3.603 0 0 1 4.882-1.493ZM686.942 857.967a4.852 4.852 0 0 1 1.237 6.724 4.797 4.797 0 0 1-6.688 1.243 4.853 4.853 0 0 1-1.236-6.724 4.793 4.793 0 0 1 6.687-1.243ZM676.348 890.813c2.508 2.185 2.777 6.002.601 8.524a5.985 5.985 0 0 1-8.478.604 6.07 6.07 0 0 1-.606-8.529 5.991 5.991 0 0 1 8.483-.599ZM658.724 922.401c2.697 2.951 2.508 7.54-.422 10.251a7.195 7.195 0 0 1-10.197-.424c-2.697-2.951-2.505-7.54.425-10.251a7.19 7.19 0 0 1 10.194.424ZM634.256 951.572c2.746 3.768 1.929 9.066-1.821 11.824-3.752 2.757-9.019 1.935-11.761-1.832-2.746-3.775-1.932-9.066 1.823-11.827 3.75-2.759 9.017-1.935 11.759 1.835ZM603.308 977.173c2.64 4.636 1.038 10.546-3.573 13.195-4.614 2.651-10.487 1.043-13.122-3.595-2.64-4.637-1.038-10.541 3.571-13.195 4.614-2.652 10.49-1.044 13.124 3.595ZM566.414 998.13c2.364 5.52-.164 11.91-5.65 14.29-5.486 2.38-11.855-.16-14.222-5.68-2.367-5.51.161-11.916 5.649-14.295 5.486-2.374 11.856.165 14.223 5.685ZM524.249 1013.43c1.932 6.39-1.654 13.13-8.006 15.07-6.353 1.95-13.068-1.66-15-8.04-1.929-6.39 1.657-13.15 8.009-15.08 6.35-1.94 13.067 1.66 14.997 8.05ZM477.662 1022.17c1.326 7.22-3.422 14.16-10.604 15.49-7.179 1.33-14.081-3.44-15.407-10.66-1.326-7.22 3.42-14.15 10.604-15.49 7.177-1.34 14.081 3.43 15.407 10.66ZM427.608 1023.57c.563 7.99-5.424 14.93-13.371 15.49-7.951.57-14.847-5.46-15.409-13.45-.563-7.99 5.426-14.92 13.371-15.49 7.951-.57 14.847 5.46 15.409 13.45ZM375.182 1016.98c-.358 8.67-7.641 15.41-16.263 15.05-8.625-.36-15.327-7.68-14.967-16.36.357-8.66 7.643-15.4 16.268-15.04 8.62.36 15.322 7.68 14.962 16.35ZM321.562 1001.92c-1.426 9.24-10.025 15.57-19.211 14.14-9.186-1.44-15.476-10.08-14.056-19.318 1.426-9.238 10.028-15.562 19.211-14.134 9.186 1.436 15.479 10.079 14.056 19.312ZM664.416 749.132c.606.273.874.989.603 1.598a1.203 1.203 0 0 1-1.592.607 1.212 1.212 0 0 1-.601-1.6 1.2 1.2 0 0 1 1.59-.605ZM669.584 779.949a2.424 2.424 0 0 1 .839 3.313 2.396 2.396 0 0 1-3.293.844 2.425 2.425 0 0 1-.842-3.313 2.398 2.398 0 0 1 3.296-.844ZM667.93 811.909a3.642 3.642 0 0 1 .697 5.08 3.59 3.59 0 0 1-5.048.709 3.638 3.638 0 0 1-.703-5.083 3.603 3.603 0 0 1 5.054-.706ZM659.3 843.868a4.854 4.854 0 0 1 .176 6.836 4.791 4.791 0 0 1-6.799.178 4.858 4.858 0 0 1-.176-6.839 4.794 4.794 0 0 1 6.799-.175ZM643.727 874.642c2.136 2.557 1.806 6.369-.735 8.514a5.984 5.984 0 0 1-8.466-.737 6.06 6.06 0 0 1 .731-8.513 5.989 5.989 0 0 1 8.47.736ZM621.402 903.072c2.205 3.335 1.304 7.842-2.011 10.054a7.188 7.188 0 0 1-10.001-2.022c-2.208-3.336-1.306-7.837 2.012-10.057a7.194 7.194 0 0 1 10 2.025ZM592.697 928.034c2.126 4.159.494 9.26-3.638 11.389-4.132 2.137-9.208.5-11.329-3.655-2.126-4.159-.497-9.26 3.636-11.397 4.134-2.13 9.208-.492 11.331 3.663ZM558.152 948.456c1.882 4.994-.619 10.576-5.586 12.469-4.969 1.892-10.521-.62-12.401-5.613-1.885-4.998.616-10.578 5.58-12.473 4.969-1.893 10.522.624 12.407 5.617ZM518.446 963.349c1.477 5.822-2.017 11.747-7.806 13.227-5.788 1.488-11.681-2.022-13.164-7.844-1.477-5.823 2.019-11.747 7.808-13.235 5.791-1.488 11.681 2.027 13.162 7.852ZM474.421 971.828c.914 6.611-3.678 12.718-10.256 13.634-6.574.916-12.645-3.7-13.562-10.314-.911-6.606 3.683-12.718 10.259-13.634 6.573-.916 12.648 3.697 13.559 10.314ZM427.046 973.133c.187 7.34-5.582 13.445-12.883 13.635-7.299.187-13.37-5.613-13.559-12.951-.186-7.345 5.58-13.444 12.881-13.634 7.298-.185 13.373 5.608 13.561 12.95ZM377.392 966.644c-.688 7.982-7.681 13.887-15.618 13.195-7.939-.686-13.814-7.724-13.126-15.701.687-7.977 7.681-13.889 15.617-13.195 7.939.687 13.815 7.72 13.127 15.701ZM326.635 951.894c-1.703 8.509-9.945 14.014-18.406 12.301-8.461-1.71-13.939-9.996-12.238-18.505 1.704-8.504 9.948-14.014 18.409-12.301 8.463 1.71 13.939 9.994 12.235 18.505ZM276.018 928.59c-2.844 8.898-12.323 13.794-21.173 10.936-8.848-2.861-13.718-12.389-10.875-21.289 2.844-8.898 12.322-13.794 21.171-10.938 8.85 2.863 13.72 12.391 10.877 21.291ZM653.986 732.829c.554.367.713 1.119.347 1.673a1.199 1.199 0 0 1-1.666.352 1.212 1.212 0 0 1-.345-1.673 1.197 1.197 0 0 1 1.664-.352ZM654.296 764.082a2.426 2.426 0 0 1 .316 3.403 2.405 2.405 0 0 1-3.388.317 2.431 2.431 0 0 1-.315-3.408 2.399 2.399 0 0 1 3.387-.312ZM647.686 795.388a3.643 3.643 0 0 1-.1 5.131 3.588 3.588 0 0 1-5.096-.098 3.642 3.642 0 0 1 .097-5.13 3.595 3.595 0 0 1 5.099.097ZM634.191 825.598a4.855 4.855 0 0 1-.889 6.778 4.79 4.79 0 0 1-6.742-.899 4.85 4.85 0 0 1 .889-6.778 4.79 4.79 0 0 1 6.742.899ZM614.024 853.543c1.711 2.864.792 6.574-2.051 8.294a5.991 5.991 0 0 1-8.252-2.062c-1.711-2.857-.795-6.574 2.048-8.294 2.846-1.723 6.539-.794 8.255 2.062ZM587.549 878.11c1.662 3.643.067 7.947-3.553 9.615-3.619 1.668-7.905.07-9.564-3.568-1.659-3.642-.069-7.949 3.554-9.617 3.623-1.668 7.902-.067 9.563 3.57ZM555.313 898.253c1.453 4.439-.954 9.218-5.366 10.681-4.413 1.453-9.171-.961-10.622-5.403-1.45-4.439.951-9.217 5.369-10.675 4.413-1.463 9.169.956 10.619 5.397ZM518.016 912.986c1.08 5.226-2.258 10.346-7.458 11.44-5.202 1.086-10.293-2.27-11.376-7.495-1.085-5.233 2.253-10.354 7.453-11.44 5.202-1.093 10.296 2.267 11.381 7.495ZM476.48 921.45c.553 5.984-3.817 11.285-9.767 11.839-5.948.562-11.225-3.837-11.779-9.814-.556-5.985 3.817-11.29 9.77-11.844 5.947-.557 11.222 3.837 11.776 9.819ZM431.678 922.903c-.127 6.676-5.613 11.981-12.248 11.854-6.638-.125-11.915-5.64-11.793-12.316.129-6.676 5.614-11.982 12.252-11.854 6.638.125 11.92 5.64 11.789 12.316ZM384.683 916.741c-.956 7.28-7.604 12.403-14.843 11.44-7.239-.961-12.334-7.643-11.376-14.923.954-7.28 7.599-12.401 14.841-11.44 7.239.962 12.334 7.643 11.378 14.923ZM336.651 902.52c-1.92 7.777-9.747 12.513-17.481 10.583-7.73-1.932-12.439-9.802-10.521-17.576 1.922-7.772 9.749-12.511 17.48-10.581 7.733 1.937 12.444 9.802 10.522 17.574ZM288.814 879.973c-3.007 8.134-12.002 12.278-20.093 9.255-8.093-3.019-12.215-12.064-9.208-20.203 3.008-8.134 12.005-12.279 20.095-9.255 8.094 3.023 12.213 12.069 9.206 20.203ZM242.448 848.994c-4.197 8.339-14.319 11.682-22.616 7.47-8.294-4.217-11.622-14.396-7.43-22.737 4.194-8.339 14.319-11.685 22.613-7.473 8.299 4.22 11.625 14.396 7.433 22.74ZM646.22 715.09c.492.45.529 1.209.082 1.708a1.201 1.201 0 0 1-1.698.082 1.212 1.212 0 0 1-.082-1.707 1.195 1.195 0 0 1 1.698-.083ZM641.666 746.002a2.433 2.433 0 0 1-.219 3.412c-1 .884-2.518.784-3.394-.219a2.424 2.424 0 0 1 .216-3.413 2.403 2.403 0 0 1 3.397.22ZM630.265 775.889a3.637 3.637 0 0 1-.894 5.046 3.593 3.593 0 0 1-5.021-.896 3.634 3.634 0 0 1 .891-5.049 3.594 3.594 0 0 1 5.024.899ZM612.236 803.6a4.853 4.853 0 0 1-1.935 6.558 4.796 4.796 0 0 1-6.518-1.95c-1.267-2.346-.4-5.28 1.932-6.553a4.798 4.798 0 0 1 6.521 1.945ZM587.969 828.03c1.247 3.093-.241 6.618-3.318 7.872-3.077 1.253-6.583-.24-7.827-3.336-1.249-3.093.238-6.619 3.31-7.872 3.082-1.253 6.586.245 7.835 3.336ZM557.995 848.13c1.075 3.862-1.167 7.862-5.001 8.938-3.837 1.084-7.82-1.176-8.891-5.028-1.072-3.86 1.167-7.86 5.004-8.938 3.837-1.076 7.815 1.176 8.888 5.028ZM523.022 862.955c.745 4.612-2.374 8.956-6.961 9.702-4.586.747-8.907-2.389-9.65-7-.742-4.614 2.374-8.958 6.964-9.705 4.586-.746 8.905 2.39 9.647 7.003ZM483.89 871.644c.256 5.335-3.837 9.864-9.141 10.124-5.31.252-9.814-3.858-10.073-9.193-.253-5.335 3.84-9.869 9.144-10.129 5.309-.257 9.814 3.862 10.07 9.198ZM441.552 873.471c-.385 5.995-5.528 10.544-11.488 10.159-5.968-.384-10.49-5.555-10.11-11.552.385-5.997 5.53-10.548 11.493-10.161 5.965.384 10.487 5.557 10.105 11.554ZM397.075 867.859c-1.162 6.574-7.405 10.948-13.944 9.782-6.536-1.169-10.889-7.445-9.73-14.024 1.165-6.569 7.413-10.953 13.947-9.777 6.536 1.171 10.894 7.448 9.727 14.019ZM351.618 854.382c-2.079 7.036-9.442 11.055-16.44 8.963-7.003-2.087-10.996-9.49-8.915-16.526 2.076-7.043 9.436-11.055 16.439-8.968 6.998 2.093 10.994 9.49 8.916 16.531ZM306.389 832.786c-3.107 7.377-11.573 10.825-18.908 7.699-7.339-3.126-10.766-11.642-7.659-19.014 3.104-7.378 11.572-10.826 18.911-7.7 7.335 3.121 10.762 11.637 7.656 19.015ZM262.652 802.985c-4.236 7.563-13.767 10.242-21.287 5.988-7.522-4.262-10.187-13.842-5.952-21.407 4.236-7.557 13.77-10.239 21.287-5.977 7.522 4.257 10.186 13.834 5.952 21.396ZM221.675 765.096c-5.441 7.577-15.961 9.29-23.5 3.825-7.537-5.473-9.238-16.044-3.8-23.626 5.439-7.58 15.961-9.29 23.495-3.825 7.542 5.473 9.243 16.049 3.805 23.626ZM641.311 696.345a1.209 1.209 0 0 1-.184 1.698 1.191 1.191 0 0 1-1.691-.185 1.21 1.21 0 0 1 .186-1.697 1.194 1.194 0 0 1 1.689.184ZM631.998 726.16a2.419 2.419 0 0 1-.745 3.334 2.396 2.396 0 0 1-3.32-.744 2.436 2.436 0 0 1 .748-3.341 2.398 2.398 0 0 1 3.317.751ZM616.093 753.886a3.636 3.636 0 0 1-1.672 4.846 3.598 3.598 0 0 1-4.817-1.675 3.638 3.638 0 0 1 1.666-4.849 3.602 3.602 0 0 1 4.823 1.678ZM593.974 778.423c.884 2.517-.428 5.276-2.931 6.17a4.805 4.805 0 0 1-6.136-2.947c-.887-2.521.427-5.28 2.93-6.171 2.503-.889 5.25.432 6.137 2.948ZM566.203 798.734c.749 3.253-1.269 6.498-4.503 7.25-3.231.756-6.461-1.273-7.209-4.519-.752-3.253 1.264-6.501 4.497-7.258 3.234-.749 6.462 1.274 7.215 4.527ZM533.47 813.873c.462 3.98-2.377 7.58-6.33 8.042-3.959.464-7.542-2.389-7.999-6.369-.46-3.977 2.379-7.577 6.335-8.039 3.956-.46 7.537 2.394 7.994 6.366ZM496.622 823.016c.02 4.674-3.737 8.471-8.386 8.491-4.647.01-8.426-3.765-8.441-8.436-.015-4.676 3.737-8.476 8.389-8.489 4.646-.015 8.426 3.758 8.438 8.434ZM456.623 825.441c-.579 5.31-5.329 9.142-10.606 8.563-5.282-.587-9.097-5.355-8.518-10.666.576-5.31 5.324-9.142 10.604-8.561 5.284.58 9.094 5.353 8.52 10.664ZM414.518 820.589c-1.309 5.86-7.097 9.543-12.928 8.227-5.831-1.318-9.494-7.141-8.185-13 1.311-5.862 7.1-9.55 12.93-8.227 5.831 1.316 9.494 7.138 8.183 13ZM371.464 808.046c-2.17 6.312-9.019 9.657-15.294 7.473-6.273-2.185-9.598-9.066-7.428-15.382 2.175-6.304 9.022-9.65 15.295-7.465 6.273 2.184 9.6 9.07 7.427 15.374ZM328.664 787.591c-3.149 6.621-11.046 9.43-17.636 6.267-6.589-3.166-9.38-11.1-6.234-17.727 3.149-6.626 11.041-9.435 17.635-6.271 6.588 3.166 9.382 11.105 6.235 17.731ZM287.349 759.141c-4.214 6.799-13.114 8.876-19.874 4.634-6.762-4.237-8.821-13.185-4.604-19.983 4.214-6.798 13.117-8.871 19.874-4.631 6.762 4.236 8.823 13.185 4.604 19.98ZM248.788 722.837c-5.362 6.799-15.191 7.95-21.955 2.562-6.77-5.388-7.907-15.272-2.551-22.076 5.362-6.803 15.196-7.949 21.96-2.559 6.765 5.388 7.905 15.268 2.546 22.073ZM214.21 678.968c-6.551 6.627-17.21 6.667-23.805.078-6.591-6.589-6.628-17.3-.075-23.931 6.551-6.631 17.207-6.666 23.8-.08 6.596 6.587 6.631 17.3.08 23.933ZM639.379 677.061a1.21 1.21 0 0 1-.445 1.648 1.2 1.2 0 0 1-1.644-.447 1.213 1.213 0 0 1 .45-1.65 1.197 1.197 0 0 1 1.639.449ZM625.542 705.046a2.423 2.423 0 0 1-1.254 3.179 2.407 2.407 0 0 1-3.162-1.264 2.423 2.423 0 0 1 1.257-3.178 2.395 2.395 0 0 1 3.159 1.263ZM605.516 729.928c.579 1.912-.494 3.94-2.401 4.521a3.6 3.6 0 0 1-4.5-2.414 3.627 3.627 0 0 1 2.401-4.524 3.601 3.601 0 0 1 4.5 2.417ZM579.853 750.683c.482 2.624-1.241 5.143-3.856 5.632-2.608.482-5.118-1.248-5.603-3.877-.479-2.624 1.244-5.151 3.857-5.632 2.612-.487 5.118 1.248 5.602 3.877ZM549.264 766.374c.231 3.331-2.263 6.222-5.573 6.457-3.31.235-6.188-2.272-6.419-5.603-.236-3.33 2.259-6.216 5.57-6.456 3.313-.235 6.186 2.272 6.422 5.602ZM514.579 776.181c-.166 4.002-3.526 7.113-7.505 6.948-3.98-.164-7.075-3.545-6.911-7.549.169-4.003 3.529-7.109 7.51-6.944 3.981.168 7.07 3.546 6.906 7.545ZM476.763 779.414c-.71 4.617-5.012 7.783-9.606 7.066-4.587-.717-7.735-5.038-7.023-9.655.711-4.623 5.012-7.784 9.603-7.068 4.595.719 7.741 5.039 7.026 9.657ZM436.878 775.517c-1.401 5.156-6.688 8.192-11.811 6.789-5.125-1.406-8.148-6.721-6.752-11.87 1.398-5.155 6.685-8.191 11.808-6.793 5.128 1.406 8.146 6.721 6.755 11.874ZM396.044 764.107c-2.205 5.578-8.492 8.309-14.048 6.09-5.552-2.217-8.264-8.544-6.059-14.126 2.205-5.583 8.498-8.309 14.048-6.095 5.555 2.222 8.27 8.546 6.059 14.131ZM355.474 744.948c-3.126 5.89-10.412 8.114-16.268 4.973-5.858-3.146-8.068-10.468-4.944-16.36 3.126-5.885 10.412-8.115 16.268-4.969 5.858 3.146 8.071 10.471 4.944 16.356ZM316.382 718.012c-4.143 6.046-12.377 7.577-18.392 3.412-6.017-4.159-7.539-12.438-3.4-18.485 4.143-6.052 12.372-7.582 18.392-3.418 6.015 4.16 7.537 12.439 3.4 18.491ZM280.006 683.418c-5.225 6.052-14.337 6.696-20.351 1.448-6.02-5.251-6.66-14.411-1.441-20.46 5.223-6.052 14.337-6.699 20.351-1.449 6.02 5.248 6.661 14.409 1.441 20.461ZM247.566 641.488c-6.352 5.878-16.241 5.463-22.084-.918-5.846-6.389-5.434-16.328.919-22.206 6.352-5.877 16.241-5.46 22.089.924 5.841 6.387 5.428 16.323-.924 22.2ZM220.242 592.724c-7.505 5.517-18.037 3.874-23.525-3.665-5.488-7.543-3.854-18.131 3.648-23.651 7.502-5.518 18.034-3.873 23.52 3.665 5.491 7.547 3.857 18.131-3.643 23.651ZM640.471 657.709a1.209 1.209 0 0 1-.697 1.558 1.2 1.2 0 0 1-1.552-.701 1.214 1.214 0 0 1 .697-1.558 1.201 1.201 0 0 1 1.552.701ZM622.452 683.173a2.421 2.421 0 0 1-1.735 2.941 2.408 2.408 0 0 1-2.926-1.745 2.419 2.419 0 0 1 1.739-2.941 2.401 2.401 0 0 1 2.922 1.745ZM598.801 704.597c.271 1.985-1.105 3.817-3.077 4.092-1.974.277-3.794-1.109-4.07-3.094a3.623 3.623 0 0 1 3.077-4.089 3.61 3.61 0 0 1 4.07 3.091ZM570.223 721.06c.067 2.671-2.029 4.891-4.686 4.958-2.652.068-4.862-2.037-4.927-4.711-.07-2.666 2.029-4.886 4.684-4.953 2.654-.07 4.859 2.037 4.929 4.706ZM537.57 731.753c-.291 3.326-3.204 5.787-6.509 5.495-3.308-.287-5.759-3.213-5.473-6.539.288-3.325 3.203-5.789 6.511-5.505 3.308.292 5.754 3.219 5.471 6.549ZM501.785 735.98c-.785 3.93-4.589 6.471-8.493 5.682-3.906-.791-6.437-4.614-5.652-8.538.789-3.933 4.594-6.472 8.498-5.683 3.904.792 6.432 4.614 5.647 8.539ZM463.931 733.231c-1.42 4.447-6.158 6.893-10.584 5.465-4.425-1.428-6.861-6.197-5.438-10.646 1.423-4.451 6.161-6.893 10.586-5.465 4.426 1.428 6.859 6.192 5.436 10.646ZM425.142 723.107c-2.183 4.871-7.877 7.041-12.72 4.846-4.845-2.194-7-7.919-4.82-12.785 2.18-4.871 7.875-7.041 12.717-4.851 4.845 2.194 7.003 7.919 4.823 12.79ZM386.59 705.411c-3.049 5.168-9.687 6.871-14.823 3.807-5.14-3.066-6.839-9.737-3.789-14.905 3.047-5.171 9.687-6.871 14.825-3.81 5.141 3.069 6.834 9.74 3.787 14.908ZM349.497 680.112c-4.003 5.325-11.545 6.374-16.84 2.349-5.297-4.027-6.342-11.607-2.339-16.934 4.006-5.321 11.548-6.374 16.842-2.35 5.295 4.027 6.345 11.61 2.337 16.935ZM315.078 647.356c-5.026 5.32-13.403 5.537-18.697.482-5.295-5.056-5.511-13.475-.482-18.795 5.034-5.326 13.403-5.543 18.702-.487 5.29 5.058 5.508 13.474.477 18.8ZM284.533 607.467c-6.099 5.153-15.201 4.361-20.326-1.771-5.126-6.131-4.336-15.282 1.763-20.435 6.099-5.155 15.2-4.364 20.326 1.77 5.128 6.132 4.336 15.282-1.763 20.436ZM259.017 560.954c-7.19 4.803-16.89 2.841-21.667-4.385-4.781-7.225-2.829-16.977 4.36-21.783 7.19-4.806 16.892-2.841 21.67 4.384 4.778 7.226 2.826 16.978-4.363 21.784ZM239.617 508.489c-8.27 4.269-18.417.996-22.666-7.318-4.246-8.311-.985-18.513 7.284-22.785 8.27-4.269 18.416-.993 22.66 7.321 4.249 8.313.989 18.512-7.278 22.782ZM644.562 638.767a1.21 1.21 0 0 1-.932 1.431 1.204 1.204 0 0 1-1.423-.941 1.208 1.208 0 0 1 .932-1.426 1.2 1.2 0 0 1 1.423.936ZM622.803 661.085a2.412 2.412 0 0 1-2.173 2.629 2.407 2.407 0 0 1-2.618-2.182 2.418 2.418 0 0 1 2.171-2.632 2.412 2.412 0 0 1 2.62 2.185ZM596.107 678.527a3.617 3.617 0 0 1-3.676 3.555c-1.989-.038-3.576-1.693-3.536-3.695a3.616 3.616 0 0 1 3.675-3.558 3.619 3.619 0 0 1 3.537 3.698ZM565.321 690.288c-.348 2.649-2.764 4.512-5.396 4.165-2.635-.35-4.488-2.779-4.138-5.425.348-2.652 2.764-4.514 5.397-4.162 2.632.349 4.482 2.781 4.137 5.422ZM531.404 695.711c-.8 3.243-4.063 5.218-7.284 4.409-3.221-.804-5.185-4.082-4.383-7.32.797-3.243 4.063-5.213 7.281-4.412 3.223.809 5.185 4.085 4.386 7.323ZM495.403 694.263c-1.386 3.76-5.541 5.673-9.271 4.277-3.737-1.396-5.642-5.568-4.254-9.323 1.389-3.757 5.541-5.669 9.276-4.276 3.732 1.398 5.637 5.572 4.249 9.322ZM458.443 685.592c-2.091 4.17-7.154 5.842-11.304 3.738-4.145-2.107-5.811-7.201-3.713-11.373 2.096-4.169 7.155-5.839 11.305-3.735 4.147 2.11 5.811 7.198 3.712 11.37ZM421.705 669.496c-2.908 4.464-8.873 5.713-13.316 2.784-4.443-2.929-5.682-8.918-2.771-13.385 2.913-4.469 8.873-5.715 13.315-2.791 4.446 2.926 5.685 8.923 2.772 13.392ZM386.384 645.953a10.78 10.78 0 0 1-15.235 1.43c-4.599-3.835-5.235-10.693-1.423-15.319 3.817-4.624 10.639-5.266 15.24-1.431 4.597 3.837 5.233 10.696 1.418 15.32ZM353.686 615.129a11.975 11.975 0 0 1-17.001-.325c-4.601-4.808-4.457-12.463.326-17.092a11.98 11.98 0 0 1 17.001.327c4.601 4.809 4.46 12.464-.326 17.09ZM324.788 577.364c-5.796 4.464-14.101 3.363-18.543-2.464-4.443-5.827-3.345-14.174 2.451-18.638 5.796-4.469 14.095-3.365 18.54 2.462 4.443 5.827 3.348 14.171-2.448 18.64ZM300.824 533.163c-6.827 4.135-15.693 1.918-19.803-4.946-4.109-6.863-1.904-15.776 4.922-19.906 6.827-4.132 15.693-1.915 19.8 4.946 4.11 6.864 1.907 15.777-4.919 19.906ZM282.857 483.21c-7.848 3.615-17.123.15-20.716-7.737-3.599-7.887-.152-17.215 7.696-20.833 7.847-3.612 17.127-.147 20.72 7.743 3.596 7.887.149 17.212-7.7 20.827ZM271.863 428.343c-8.836 2.916-18.347-1.917-21.25-10.795-2.901-8.879 1.907-18.441 10.738-21.357 8.833-2.919 18.344 1.915 21.245 10.791 2.9 8.883-1.905 18.44-10.733 21.361ZM651.547 620.701a1.208 1.208 0 0 1-1.142 1.269 1.21 1.21 0 0 1-.117-2.417 1.201 1.201 0 0 1 1.259 1.148ZM626.585 639.321a2.412 2.412 0 0 1-2.556 2.257 2.414 2.414 0 0 1-2.245-2.566 2.41 2.41 0 0 1 2.556-2.257 2.41 2.41 0 0 1 2.245 2.566ZM597.502 652.352a3.601 3.601 0 0 1-4.179 2.931 3.62 3.62 0 0 1-2.92-4.202c.35-1.973 2.222-3.288 4.184-2.936a3.62 3.62 0 0 1 2.915 4.207ZM565.269 659.127c-.758 2.562-3.435 4.023-5.98 3.261-2.548-.759-4.001-3.45-3.241-6.009.755-2.562 3.432-4.02 5.975-3.261 2.548.759 3.998 3.45 3.246 6.009ZM530.924 659.15c-1.296 3.073-4.825 4.509-7.882 3.206-3.054-1.298-4.487-4.846-3.188-7.917a6 6 0 0 1 7.879-3.213c3.055 1.303 4.483 4.851 3.191 7.924ZM495.589 652.059c-1.952 3.491-6.353 4.727-9.822 2.764-3.471-1.967-4.701-6.391-2.749-9.879 1.957-3.49 6.355-4.729 9.827-2.764 3.469 1.967 4.701 6.389 2.744 9.879ZM460.437 637.679a8.386 8.386 0 0 1-11.748 1.91c-3.768-2.732-4.619-8.022-1.898-11.81a8.382 8.382 0 0 1 11.747-1.915c3.769 2.737 4.621 8.025 1.899 11.815ZM426.659 616.003c-3.576 3.952-9.658 4.246-13.589.659-3.933-3.595-4.224-9.707-.655-13.662a9.586 9.586 0 0 1 13.588-.662c3.934 3.593 4.225 9.707.656 13.665ZM395.431 587.196a10.778 10.778 0 0 1-15.267-.986c-3.949-4.509-3.509-11.385.976-15.352a10.779 10.779 0 0 1 15.272.984c3.949 4.511 3.506 11.387-.981 15.354ZM367.931 551.609c-5.446 3.819-12.941 2.476-16.741-2.996-3.797-5.476-2.46-13.008 2.98-16.83 5.449-3.82 12.944-2.48 16.741 2.998 3.802 5.473 2.468 13.01-2.98 16.828ZM345.265 509.762c-6.419 3.5-14.448 1.106-17.929-5.348-3.485-6.454-1.103-14.525 5.319-18.026 6.422-3.5 14.448-1.106 17.932 5.348 3.477 6.454 1.1 14.526-5.322 18.026ZM328.473 462.338c-7.385 3.006-15.797-.574-18.786-8-2.99-7.425.576-15.878 7.956-18.887 7.386-3.008 15.797.574 18.789 8 2.99 7.422-.574 15.878-7.959 18.887ZM318.502 410.175c-8.314 2.334-16.936-2.547-19.26-10.903-2.325-8.356 2.533-17.027 10.844-19.364 8.315-2.335 16.939 2.546 19.264 10.903 2.321 8.356-2.533 17.027-10.848 19.364ZM316.178 354.252c-9.176 1.491-17.818-4.779-19.305-14.004-1.483-9.225 4.75-17.913 13.929-19.406 9.178-1.491 17.817 4.776 19.303 14.001 1.482 9.228-4.749 17.916-13.927 19.409ZM661.259 603.959a1.204 1.204 0 0 1-1.323 1.071 1.206 1.206 0 0 1-1.065-1.336 1.202 1.202 0 1 1 2.388.265ZM633.707 618.424a2.404 2.404 0 0 1-2.873 1.825 2.417 2.417 0 0 1-1.818-2.888 2.4 2.4 0 0 1 2.871-1.828 2.42 2.42 0 0 1 1.82 2.891ZM602.958 626.716a3.6 3.6 0 0 1-4.589 2.239c-1.882-.654-2.878-2.719-2.227-4.609a3.598 3.598 0 0 1 4.586-2.241 3.63 3.63 0 0 1 2.23 4.611ZM570.062 628.341c-1.145 2.409-4.016 3.431-6.412 2.28-2.397-1.149-3.41-4.035-2.265-6.447a4.799 4.799 0 0 1 6.412-2.279c2.394 1.151 3.409 4.039 2.265 6.446ZM536.139 622.961c-1.758 2.831-5.468 3.697-8.282 1.93-2.816-1.765-3.68-5.495-1.919-8.324a5.992 5.992 0 0 1 8.279-1.935c2.819 1.768 3.678 5.495 1.922 8.329ZM502.344 610.4a7.185 7.185 0 0 1-10.132 1.183c-3.124-2.486-3.651-7.048-1.177-10.188a7.189 7.189 0 0 1 10.134-1.181c3.122 2.486 3.646 7.048 1.175 10.186ZM469.859 590.669c-3.273 3.318-8.602 3.33-11.9.04-3.295-3.293-3.315-8.651-.037-11.967a8.382 8.382 0 0 1 11.902-.037c3.298 3.293 3.313 8.648.035 11.964ZM439.87 563.945a9.582 9.582 0 0 1-13.521-1.486c-3.328-4.164-2.665-10.251 1.477-13.594s10.197-2.679 13.524 1.483c3.323 4.167 2.663 10.254-1.48 13.597ZM413.51 530.582c-5.051 3.213-11.732 1.705-14.928-3.371-3.196-5.078-1.696-11.799 3.355-15.012 5.051-3.213 11.737-1.703 14.93 3.373 3.196 5.078 1.694 11.796-3.357 15.01ZM391.887 491.109c-5.977 2.919-13.169.412-16.069-5.592-2.901-6.002-.408-13.233 5.562-16.154 5.973-2.916 13.169-.409 16.07 5.593 2.898 6.002.41 13.24-5.563 16.153ZM376.009 446.212c-6.884 2.449-14.441-1.181-16.877-8.102-2.433-6.921 1.175-14.518 8.059-16.965 6.888-2.449 14.443 1.179 16.879 8.102 2.433 6.921-1.172 14.521-8.061 16.965ZM366.806 396.733c-7.766 1.807-15.514-3.054-17.314-10.856-1.796-7.804 3.039-15.594 10.8-17.407 7.76-1.805 15.513 3.056 17.311 10.858 1.798 7.803-3.037 15.595-10.797 17.405ZM365.075 343.644c-8.575.998-16.333-5.178-17.329-13.797-.996-8.621 5.148-16.418 13.725-17.422 8.575-.998 16.333 5.178 17.327 13.802.995 8.618-5.148 16.416-13.723 17.417ZM371.479 288.046c-9.295.024-16.856-7.523-16.891-16.87-.03-9.343 7.485-16.945 16.78-16.978 9.295-.03 16.856 7.523 16.886 16.865.028 9.348-7.48 16.948-16.775 16.983ZM673.458 588.946a1.2 1.2 0 1 1-2.317-.634 1.2 1.2 0 0 1 1.475-.849 1.21 1.21 0 0 1 .842 1.483ZM643.993 598.9a2.402 2.402 0 0 1-3.124 1.354 2.424 2.424 0 0 1-1.346-3.139 2.4 2.4 0 0 1 3.124-1.353 2.422 2.422 0 0 1 1.346 3.138ZM612.33 602.256a3.597 3.597 0 0 1-4.879 1.493 3.639 3.639 0 0 1-1.483-4.906 3.596 3.596 0 0 1 4.88-1.493 3.629 3.629 0 0 1 1.482 4.906ZM579.588 598.688a4.79 4.79 0 0 1-6.69 1.241c-2.188-1.51-2.74-4.519-1.232-6.721a4.793 4.793 0 0 1 6.687-1.243c2.186 1.513 2.737 4.524 1.235 6.723ZM546.919 588.04a5.989 5.989 0 0 1-8.48.602 6.064 6.064 0 0 1-.599-8.524 5.989 5.989 0 0 1 8.478-.607c2.509 2.19 2.774 6.007.601 8.529ZM515.495 570.319a7.184 7.184 0 0 1-10.189-.427c-2.699-2.944-2.511-7.535.42-10.244a7.186 7.186 0 0 1 10.194.424 7.279 7.279 0 0 1-.425 10.247ZM486.48 545.721c-3.747 2.759-9.012 1.938-11.759-1.835-2.741-3.77-1.927-9.065 1.826-11.821 3.752-2.762 9.014-1.94 11.761 1.832 2.744 3.77 1.927 9.066-1.828 11.824ZM461.018 514.61c-4.614 2.647-10.487 1.039-13.124-3.597-2.635-4.637-1.036-10.541 3.576-13.193 4.612-2.651 10.487-1.043 13.124 3.593 2.638 4.636 1.036 10.543-3.576 13.197ZM440.176 477.51c-5.488 2.379-11.853-.165-14.222-5.68-2.367-5.515.166-11.916 5.652-14.296 5.49-2.379 11.853.165 14.219 5.68 2.367 5.518-.161 11.917-5.649 14.296ZM424.96 435.122c-6.354 1.942-13.072-1.663-15.001-8.05-1.927-6.384 1.656-13.137 8.008-15.08 6.353-1.937 13.07 1.666 15 8.052 1.932 6.384-1.652 13.138-8.007 15.078ZM416.264 388.282c-7.182 1.335-14.081-3.438-15.409-10.659-1.326-7.217 3.419-14.153 10.604-15.489 7.179-1.333 14.078 3.436 15.409 10.658 1.323 7.221-3.42 14.156-10.604 15.49ZM414.873 337.964c-7.952.562-14.848-5.455-15.411-13.445-.562-7.992 5.428-14.927 13.372-15.492 7.949-.566 14.851 5.456 15.409 13.445.567 7.989-5.421 14.925-13.37 15.492ZM421.422 285.254c-8.622-.359-15.325-7.682-14.967-16.351.357-8.67 7.641-15.406 16.265-15.047 8.625.362 15.328 7.685 14.968 16.353-.361 8.671-7.639 15.407-16.266 15.045ZM436.399 231.349c-9.186-1.436-15.479-10.082-14.056-19.319 1.425-9.233 10.025-15.56 19.214-14.129 9.185 1.433 15.478 10.079 14.055 19.312-1.425 9.24-10.025 15.564-19.213 14.136ZM687.839 576.041a1.196 1.196 0 0 1-1.587.607 1.207 1.207 0 0 1-.601-1.598 1.196 1.196 0 0 1 1.587-.607c.606.275.879.989.601 1.598ZM657.192 581.236a2.398 2.398 0 0 1-3.298.844 2.422 2.422 0 0 1-.839-3.31 2.4 2.4 0 0 1 3.295-.847 2.425 2.425 0 0 1 .842 3.313ZM625.398 579.574a3.595 3.595 0 0 1-5.054.701 3.638 3.638 0 0 1-.7-5.078 3.594 3.594 0 0 1 5.051-.704 3.64 3.64 0 0 1 .703 5.081ZM593.611 570.898a4.791 4.791 0 0 1-6.799.177 4.85 4.85 0 0 1-.174-6.833 4.79 4.79 0 0 1 6.799-.18 4.858 4.858 0 0 1 .174 6.836ZM563.001 555.241a5.986 5.986 0 0 1-8.468-.739c-2.138-2.554-1.81-6.369.735-8.513a5.99 5.99 0 0 1 8.469.736c2.133 2.554 1.802 6.369-.736 8.516ZM534.721 532.796c-3.317 2.22-7.792 1.311-10-2.022-2.208-3.336-1.306-7.837 2.011-10.054 3.318-2.22 7.798-1.311 10.003 2.022 2.205 3.336 1.304 7.837-2.014 10.054ZM509.893 503.937c-4.132 2.14-9.206.497-11.329-3.66-2.123-4.154-.497-9.255 3.64-11.387 4.138-2.14 9.209-.499 11.332 3.657 2.123 4.157.494 9.258-3.643 11.39ZM489.584 469.204c-4.969 1.895-10.522-.622-12.404-5.615-1.88-4.994.618-10.574 5.585-12.466 4.967-1.895 10.522.619 12.404 5.61 1.883 4.996-.618 10.578-5.585 12.471ZM474.771 429.287c-5.789 1.488-11.682-2.027-13.162-7.847-1.48-5.82 2.014-11.747 7.803-13.235 5.791-1.483 11.684 2.03 13.164 7.85 1.48 5.822-2.014 11.744-7.805 13.232ZM466.338 385.026c-6.579.919-12.65-3.698-13.564-10.311-.912-6.609 3.68-12.711 10.256-13.635 6.578-.916 12.65 3.701 13.561 10.312.912 6.611-3.675 12.718-10.253 13.634ZM465.039 337.397c-7.301.187-13.375-5.612-13.562-12.95-.188-7.34 5.578-13.445 12.879-13.632 7.303-.187 13.375 5.608 13.561 12.948.187 7.34-5.58 13.447-12.878 13.634ZM471.491 287.476c-7.937-.691-13.815-7.722-13.127-15.701.69-7.98 7.683-13.889 15.62-13.198 7.939.689 13.817 7.725 13.127 15.702-.688 7.982-7.681 13.889-15.62 13.197ZM486.165 236.449c-8.464-1.715-13.944-9.999-12.241-18.507 1.701-8.507 9.944-14.014 18.407-12.301 8.463 1.712 13.944 9.999 12.24 18.505-1.706 8.506-9.946 14.014-18.406 12.303ZM509.344 185.56c-8.851-2.864-13.72-12.391-10.877-21.292 2.843-8.896 12.325-13.789 21.175-10.93 8.846 2.858 13.716 12.388 10.875 21.284-2.846 8.898-12.322 13.794-21.173 10.938ZM704.055 565.555a1.197 1.197 0 0 1-1.664.35 1.215 1.215 0 0 1-.345-1.676 1.202 1.202 0 0 1 1.664-.347 1.21 1.21 0 0 1 .345 1.673ZM672.973 565.867a2.394 2.394 0 0 1-3.384.315 2.422 2.422 0 0 1-.316-3.403 2.394 2.394 0 0 1 3.385-.317 2.426 2.426 0 0 1 .315 3.405ZM641.83 559.221a3.59 3.59 0 0 1-5.098-.098 3.64 3.64 0 0 1 .094-5.125 3.592 3.592 0 0 1 5.101.097 3.637 3.637 0 0 1-.097 5.126ZM611.787 545.657a4.8 4.8 0 0 1-6.745-.897 4.85 4.85 0 0 1 .891-6.778 4.797 4.797 0 0 1 6.745.894 4.86 4.86 0 0 1-.891 6.781ZM583.991 525.376a5.989 5.989 0 0 1-8.25-2.06c-1.714-2.861-.797-6.573 2.046-8.294a5.995 5.995 0 0 1 8.252 2.06c1.714 2.859.795 6.571-2.048 8.294ZM559.55 498.759c-3.621 1.673-7.902.07-9.561-3.568-1.662-3.642-.072-7.946 3.551-9.614a7.194 7.194 0 0 1 9.563 3.57c1.659 3.64.07 7.944-3.553 9.612ZM539.519 466.355c-4.415 1.458-9.171-.959-10.621-5.398-1.45-4.436.951-9.22 5.369-10.678 4.418-1.458 9.171.959 10.621 5.395 1.45 4.442-.954 9.223-5.369 10.681ZM524.862 428.855c-5.2 1.089-10.293-2.269-11.378-7.497-1.08-5.231 2.26-10.349 7.457-11.438 5.203-1.091 10.294 2.267 11.379 7.493 1.083 5.23-2.257 10.348-7.458 11.442ZM516.441 387.096c-5.95.559-11.222-3.84-11.776-9.817-.556-5.985 3.817-11.288 9.767-11.844 5.953-.557 11.225 3.84 11.779 9.819.556 5.985-3.82 11.285-9.77 11.842ZM515.001 342.053c-6.64-.124-11.917-5.64-11.791-12.313.127-6.674 5.613-11.979 12.251-11.854 6.635.127 11.917 5.642 11.788 12.316-.127 6.673-5.61 11.981-12.248 11.851ZM521.128 294.809c-7.239-.964-12.335-7.647-11.379-14.925.953-7.278 7.601-12.401 14.84-11.44 7.244.964 12.34 7.645 11.381 14.925-.958 7.275-7.601 12.399-14.842 11.44ZM535.27 246.518c-7.733-1.934-12.446-9.801-10.522-17.574 1.92-7.777 9.747-12.51 17.483-10.581 7.731 1.933 12.439 9.802 10.519 17.575-1.919 7.774-9.747 12.51-17.48 10.58ZM557.699 198.423c-8.09-3.024-12.213-12.067-9.208-20.201 3.008-8.137 12.002-12.278 20.095-9.257 8.091 3.021 12.216 12.068 9.209 20.203-3.005 8.136-12.002 12.276-20.096 9.255ZM588.513 151.808c-8.295-4.217-11.622-14.396-7.43-22.738 4.194-8.338 14.318-11.684 22.615-7.467 8.295 4.214 11.622 14.393 7.43 22.732-4.194 8.341-14.316 11.687-22.615 7.473ZM721.701 557.748a1.194 1.194 0 0 1-1.696.082 1.208 1.208 0 0 1-.082-1.705 1.194 1.194 0 0 1 1.696-.085c.492.45.529 1.214.082 1.708ZM690.953 553.167a2.395 2.395 0 0 1-3.393-.22 2.432 2.432 0 0 1 .219-3.413 2.391 2.391 0 0 1 3.392.222 2.421 2.421 0 0 1-.218 3.411ZM661.23 541.707a3.601 3.601 0 0 1-5.024-.899 3.642 3.642 0 0 1 .894-5.051 3.598 3.598 0 0 1 5.024.902 3.64 3.64 0 0 1-.894 5.048ZM633.665 523.581a4.797 4.797 0 0 1-6.522-1.945 4.848 4.848 0 0 1 1.935-6.554 4.797 4.797 0 0 1 6.521 1.943c1.267 2.349.4 5.283-1.934 6.556ZM609.368 499.184a6.004 6.004 0 0 1-7.83-3.336c-1.244-3.093.236-6.616 3.313-7.867 3.079-1.256 6.583.235 7.83 3.328 1.246 3.096-.239 6.619-3.313 7.875ZM589.369 469.051c-3.836 1.076-7.815-1.176-8.89-5.033-1.073-3.855 1.17-7.857 5.007-8.938 3.836-1.079 7.817 1.178 8.89 5.033 1.07 3.858-1.17 7.857-5.007 8.938ZM574.626 433.891c-4.587.746-8.908-2.387-9.65-7.001-.743-4.611 2.374-8.955 6.963-9.702 4.592-.747 8.908 2.387 9.65 7.001.743 4.614-2.374 8.955-6.963 9.702ZM565.986 394.548c-5.306.255-9.816-3.86-10.072-9.195-.253-5.335 3.839-9.864 9.146-10.124 5.307-.255 9.814 3.857 10.073 9.193.253 5.335-3.84 9.867-9.147 10.126ZM564.169 351.98c-5.968-.384-10.488-5.557-10.11-11.549.385-5.995 5.53-10.546 11.493-10.162 5.965.385 10.489 5.558 10.107 11.552-.385 5.997-5.53 10.544-11.49 10.159ZM569.751 307.267c-6.539-1.171-10.894-7.45-9.73-14.018 1.163-6.572 7.406-10.951 13.944-9.782 6.536 1.168 10.895 7.447 9.73 14.018-1.165 6.572-7.405 10.956-13.944 9.782ZM583.154 261.563c-7.001-2.087-10.994-9.492-8.918-16.53 2.076-7.036 9.439-11.053 16.44-8.963 7.003 2.089 10.996 9.49 8.917 16.53-2.076 7.038-9.439 11.053-16.439 8.963ZM604.637 216.091c-7.338-3.123-10.765-11.634-7.659-19.012 3.107-7.375 11.575-10.82 18.913-7.697 7.334 3.123 10.763 11.637 7.657 19.01-3.107 7.377-11.573 10.823-18.911 7.699ZM634.273 172.118c-7.519-4.257-10.184-13.839-5.95-21.399 4.234-7.565 13.765-10.241 21.287-5.985 7.522 4.26 10.184 13.844 5.95 21.404-4.234 7.56-13.765 10.239-21.287 5.98ZM671.963 130.923c-7.54-5.47-9.243-16.049-3.802-23.626 5.438-7.578 15.958-9.29 23.499-3.82 7.537 5.467 9.238 16.046 3.8 23.623-5.441 7.578-15.958 9.288-23.497 3.823ZM740.344 552.812a1.2 1.2 0 0 1-1.689-.185 1.21 1.21 0 0 1 .186-1.698 1.198 1.198 0 0 1 1.689.185 1.212 1.212 0 0 1-.186 1.698ZM710.69 543.452a2.395 2.395 0 0 1-3.317-.749 2.426 2.426 0 0 1 .745-3.336 2.397 2.397 0 0 1 3.317.747 2.426 2.426 0 0 1-.745 3.338ZM683.113 527.458a3.595 3.595 0 0 1-4.818-1.68 3.627 3.627 0 0 1 1.666-4.843 3.597 3.597 0 0 1 4.821 1.677 3.633 3.633 0 0 1-1.669 4.846ZM658.709 505.221a4.804 4.804 0 0 1-6.139-2.949c-.884-2.517.425-5.278 2.933-6.167 2.503-.891 5.252.427 6.136 2.946.887 2.517-.427 5.278-2.93 6.17ZM638.505 477.298c-3.236.754-6.464-1.268-7.212-4.522-.75-3.25 1.264-6.498 4.497-7.252 3.234-.754 6.465 1.273 7.214 4.521.75 3.256-1.266 6.501-4.499 7.253ZM623.443 444.394c-3.956.462-7.537-2.389-7.998-6.366-.457-3.98 2.379-7.58 6.335-8.042 3.958-.459 7.539 2.389 7.998 6.369.457 3.98-2.376 7.575-6.335 8.039ZM614.354 407.349c-4.648.017-8.431-3.76-8.446-8.432-.014-4.671 3.74-8.473 8.389-8.488 4.649-.013 8.429 3.76 8.446 8.431.015 4.674-3.742 8.474-8.389 8.489ZM611.94 367.13c-5.279-.579-9.091-5.353-8.515-10.663.579-5.308 5.327-9.138 10.606-8.561 5.282.581 9.094 5.355 8.518 10.663-.576 5.31-5.329 9.143-10.609 8.561ZM616.766 324.799c-5.826-1.316-9.492-7.133-8.183-12.995 1.311-5.86 7.1-9.545 12.928-8.229 5.834 1.32 9.499 7.138 8.188 13s-7.1 9.545-12.933 8.224ZM629.239 281.514c-6.278-2.182-9.598-9.065-7.427-15.374 2.173-6.304 9.017-9.65 15.295-7.468 6.273 2.185 9.6 9.071 7.425 15.377-2.171 6.307-9.017 9.652-15.293 7.465ZM649.59 238.484c-6.59-3.166-9.382-11.103-6.235-17.729 3.146-6.623 11.043-9.43 17.631-6.266 6.594 3.163 9.382 11.1 6.236 17.728-3.149 6.624-11.041 9.433-17.632 6.267ZM677.883 196.95c-6.762-4.24-8.823-13.183-4.607-19.981 4.217-6.796 13.117-8.866 19.877-4.629 6.76 4.237 8.823 13.185 4.606 19.981-4.216 6.796-13.117 8.868-19.876 4.629ZM713.998 158.181c-6.767-5.39-7.907-15.272-2.548-22.073 5.357-6.803 15.186-7.949 21.955-2.561 6.767 5.387 7.91 15.274 2.548 22.075-5.359 6.801-15.188 7.947-21.955 2.559ZM757.633 123.418c-6.594-6.589-6.631-17.302-.08-23.933 6.551-6.626 17.207-6.664 23.805-.075 6.594 6.589 6.628 17.302.077 23.93-6.553 6.629-17.209 6.667-23.802.078ZM759.527 550.87a1.197 1.197 0 0 1-1.641-.45 1.212 1.212 0 0 1 .449-1.648 1.194 1.194 0 0 1 1.637.45 1.207 1.207 0 0 1-.445 1.648ZM731.694 536.961a2.4 2.4 0 0 1-3.161-1.264 2.423 2.423 0 0 1 1.257-3.178 2.402 2.402 0 0 1 3.158 1.263 2.422 2.422 0 0 1-1.254 3.179ZM706.945 516.825a3.605 3.605 0 0 1-4.502-2.414c-.576-1.915.497-3.942 2.401-4.524a3.603 3.603 0 0 1 4.503 2.417c.578 1.915-.497 3.942-2.402 4.521ZM686.301 491.024c-2.612.487-5.12-1.248-5.607-3.874-.479-2.627 1.244-5.148 3.857-5.633 2.615-.487 5.123 1.251 5.605 3.875.481 2.626-1.245 5.146-3.855 5.632ZM670.691 460.27c-3.313.235-6.186-2.274-6.419-5.602-.236-3.328 2.257-6.219 5.567-6.454 3.313-.237 6.191 2.272 6.425 5.6.233 3.331-2.263 6.219-5.573 6.456ZM660.934 425.4c-3.981-.165-7.07-3.546-6.908-7.545.166-4.002 3.528-7.113 7.507-6.946 3.98.167 7.075 3.545 6.908 7.547-.166 4-3.526 7.111-7.507 6.944ZM657.721 387.383c-4.594-.714-7.741-5.041-7.03-9.657.715-4.617 5.016-7.782 9.61-7.066 4.592.719 7.738 5.041 7.028 9.66-.713 4.616-5.016 7.779-9.608 7.063ZM661.595 347.279c-5.123-1.403-8.148-6.719-6.752-11.872 1.398-5.153 6.685-8.189 11.808-6.786 5.128 1.403 8.148 6.719 6.754 11.869-1.398 5.156-6.682 8.194-11.81 6.789ZM672.949 306.231c-5.553-2.219-8.265-8.543-6.06-14.123 2.205-5.585 8.498-8.314 14.051-6.097 5.553 2.222 8.267 8.546 6.062 14.128-2.208 5.585-8.498 8.309-14.053 6.092ZM692.001 265.441c-5.859-3.144-8.071-10.469-4.942-16.356 3.126-5.887 10.408-8.114 16.268-4.971 5.856 3.146 8.071 10.469 4.942 16.358-3.124 5.885-10.408 8.114-16.268 4.969ZM718.798 226.141c-6.017-4.162-7.539-12.446-3.399-18.493 4.137-6.047 12.374-7.58 18.389-3.418 6.017 4.162 7.539 12.441 3.402 18.493-4.14 6.044-12.375 7.58-18.392 3.418ZM753.207 189.567c-6.019-5.251-6.665-14.411-1.44-20.46 5.22-6.052 14.334-6.696 20.351-1.448 6.02 5.248 6.663 14.41 1.44 20.46-5.225 6.052-14.334 6.698-20.351 1.448ZM794.91 156.953c-5.846-6.386-5.436-16.328.916-22.203 6.35-5.877 16.239-5.46 22.082.921 5.846 6.389 5.436 16.331-.916 22.208-6.35 5.873-16.239 5.46-22.082-.926ZM843.414 129.482c-5.488-7.547-3.856-18.133 3.646-23.651 7.502-5.518 18.032-3.877 23.522 3.668 5.488 7.542 3.857 18.131-3.643 23.648-7.507 5.518-18.034 3.875-23.525-3.665ZM778.778 551.968a1.2 1.2 0 0 1-1.552-.701 1.21 1.21 0 0 1 .698-1.558 1.198 1.198 0 0 1 1.55.701 1.206 1.206 0 0 1-.696 1.558ZM753.448 533.852a2.4 2.4 0 0 1-2.923-1.745 2.412 2.412 0 0 1 1.734-2.938 2.408 2.408 0 0 1 2.928 1.742c.322 1.296-.45 2.612-1.739 2.941ZM732.136 510.074a3.607 3.607 0 0 1-4.065-3.093c-.275-1.983 1.103-3.815 3.072-4.092a3.615 3.615 0 0 1 4.073 3.096 3.624 3.624 0 0 1-3.08 4.089ZM715.764 481.342c-2.658.07-4.865-2.037-4.935-4.708-.067-2.672 2.032-4.886 4.686-4.956 2.655-.07 4.865 2.04 4.932 4.708.07 2.667-2.029 4.886-4.683 4.956ZM705.13 448.511c-3.308-.287-5.756-3.218-5.471-6.541.286-3.326 3.201-5.787 6.509-5.5 3.308.287 5.759 3.218 5.471 6.541-.288 3.328-3.201 5.787-6.509 5.5ZM700.921 412.537c-3.904-.792-6.434-4.617-5.65-8.539.785-3.927 4.589-6.471 8.496-5.68 3.906.792 6.434 4.614 5.647 8.541-.785 3.928-4.589 6.467-8.493 5.678ZM703.662 374.483c-4.427-1.431-6.861-6.197-5.441-10.644 1.423-4.446 6.164-6.898 10.587-5.465 4.428 1.431 6.861 6.192 5.441 10.641-1.423 4.449-6.161 6.896-10.587 5.468ZM713.727 335.485c-4.842-2.195-7-7.922-4.82-12.791 2.183-4.871 7.875-7.038 12.72-4.846 4.842 2.192 7 7.917 4.823 12.786-2.181 4.871-7.878 7.04-12.723 4.851ZM731.329 296.721c-5.138-3.061-6.836-9.734-3.787-14.902 3.047-5.168 9.685-6.874 14.826-3.808 5.14 3.069 6.836 9.74 3.787 14.908-3.047 5.166-9.688 6.871-14.826 3.802ZM756.495 259.434c-5.299-4.03-6.342-11.61-2.337-16.935 4.004-5.321 11.543-6.374 16.84-2.35 5.297 4.028 6.342 11.607 2.337 16.933-4.003 5.323-11.543 6.379-16.84 2.352ZM789.074 224.827c-5.292-5.055-5.508-13.472-.479-18.795a13.173 13.173 0 0 1 18.697-.481c5.297 5.055 5.511 13.469.479 18.795-5.028 5.322-13.4 5.542-18.697.481ZM828.75 194.118c-5.128-6.134-4.338-15.282 1.761-20.435 6.102-5.156 15.201-4.357 20.326 1.773 5.128 6.132 4.339 15.282-1.761 20.435-6.099 5.156-15.2 4.362-20.326-1.773ZM875.015 168.465c-4.778-7.225-2.826-16.98 4.361-21.786 7.189-4.803 16.889-2.839 21.669 4.387 4.778 7.228 2.826 16.982-4.363 21.788-7.187 4.804-16.889 2.841-21.667-4.389ZM927.197 148.964c-4.246-8.317-.986-18.518 7.284-22.79 8.267-4.267 18.411-.991 22.66 7.323 4.247 8.311.986 18.515-7.281 22.784-8.269 4.27-18.411.994-22.663-7.317ZM797.617 556.08a1.2 1.2 0 0 1-1.423-.934 1.208 1.208 0 0 1 .931-1.43 1.199 1.199 0 0 1 1.423.936 1.208 1.208 0 0 1-.931 1.428ZM775.421 534.202a2.41 2.41 0 0 1-2.62-2.18 2.413 2.413 0 0 1 2.173-2.631 2.407 2.407 0 0 1 2.617 2.182 2.412 2.412 0 0 1-2.17 2.629ZM758.072 507.365a3.612 3.612 0 0 1-3.536-3.692c.035-2.003 1.684-3.598 3.67-3.558a3.622 3.622 0 0 1 3.542 3.695c-.04 2.002-1.684 3.595-3.676 3.555ZM746.368 476.416c-2.635-.352-4.487-2.781-4.137-5.43.348-2.646 2.764-4.509 5.399-4.157 2.632.35 4.485 2.779 4.137 5.425-.35 2.647-2.766 4.507-5.399 4.162ZM740.974 442.317c-3.22-.809-5.185-4.084-4.385-7.325.802-3.238 4.065-5.213 7.286-4.409 3.221.806 5.185 4.084 4.386 7.322-.803 3.241-4.063 5.213-7.287 4.412ZM742.415 406.123c-3.735-1.396-5.637-5.573-4.252-9.325 1.389-3.755 5.543-5.668 9.273-4.275 3.738 1.399 5.64 5.573 4.252 9.326-1.386 3.755-5.538 5.667-9.273 4.274ZM751.044 368.965c-4.149-2.107-5.811-7.195-3.715-11.367 2.094-4.167 7.157-5.843 11.304-3.735 4.153 2.109 5.812 7.197 3.716 11.369-2.094 4.17-7.157 5.84-11.305 3.733ZM767.054 332.029c-4.442-2.928-5.684-8.92-2.771-13.389 2.913-4.467 8.873-5.713 13.316-2.787 4.442 2.929 5.684 8.921 2.774 13.39-2.911 4.467-8.876 5.715-13.319 2.786ZM790.47 296.517c-4.599-3.838-5.238-10.694-1.423-15.317 3.814-4.624 10.636-5.266 15.238-1.428 4.599 3.834 5.237 10.693 1.42 15.317-3.814 4.623-10.636 5.263-15.235 1.428ZM821.129 263.643c-4.607-4.814-4.46-12.463.323-17.092 4.785-4.629 12.394-4.482 17.003.327 4.602 4.811 4.458 12.463-.328 17.092a11.975 11.975 0 0 1-16.998-.327ZM858.692 234.587c-4.443-5.825-3.343-14.174 2.451-18.64 5.796-4.467 14.095-3.366 18.538 2.464 4.445 5.827 3.35 14.173-2.449 18.642-5.796 4.465-14.097 3.363-18.54-2.466ZM902.657 210.496c-4.11-6.863-1.907-15.776 4.919-19.908 6.825-4.13 15.69-1.912 19.8 4.948 4.112 6.861 1.907 15.777-4.919 19.906-6.825 4.132-15.69 1.918-19.8-4.946ZM952.343 192.436c-3.595-7.89-.149-17.218 7.696-20.833 7.848-3.615 17.123-.149 20.721 7.74 3.596 7.889.147 17.22-7.698 20.832-7.847 3.615-17.125.15-20.719-7.739ZM1006.92 181.378c-2.9-8.881 1.9-18.443 10.74-21.362 8.83-2.916 18.34 1.92 21.24 10.799 2.9 8.878-1.91 18.44-10.74 21.356-8.83 2.916-18.34-1.912-21.24-10.793ZM815.586 563.103a1.204 1.204 0 0 1-1.261-1.146 1.204 1.204 0 1 1 2.404-.117 1.207 1.207 0 0 1-1.143 1.263ZM797.066 538.007a2.406 2.406 0 0 1-2.243-2.567 2.406 2.406 0 0 1 2.55-2.259 2.41 2.41 0 0 1 2.245 2.566 2.405 2.405 0 0 1-2.552 2.26ZM784.107 508.773a3.631 3.631 0 0 1-2.92-4.209 3.611 3.611 0 0 1 4.182-2.934c1.964.35 3.268 2.235 2.92 4.207-.35 1.97-2.222 3.286-4.182 2.936ZM777.365 476.359c-2.545-.759-4-3.448-3.243-6.009.755-2.559 3.43-4.02 5.977-3.261 2.548.761 3.999 3.453 3.241 6.012a4.8 4.8 0 0 1-5.975 3.258ZM777.343 441.833c-3.057-1.301-4.485-4.849-3.191-7.925 1.294-3.071 4.825-4.509 7.879-3.205 3.057 1.3 4.488 4.848 3.194 7.919-1.296 3.076-4.823 4.511-7.882 3.211ZM784.396 406.31c-3.47-1.965-4.699-6.389-2.747-9.877 1.954-3.49 6.352-4.728 9.827-2.764 3.469 1.968 4.698 6.392 2.744 9.88-1.955 3.49-6.353 4.726-9.824 2.761ZM798.7 370.967c-3.773-2.731-4.619-8.019-1.903-11.812 2.72-3.787 7.982-4.641 11.751-1.91 3.768 2.737 4.62 8.022 1.9 11.815a8.387 8.387 0 0 1-11.748 1.907ZM820.262 337.005c-3.933-3.593-4.226-9.707-.655-13.659a9.58 9.58 0 0 1 13.586-.657c3.934 3.588 4.227 9.702.658 13.657a9.586 9.586 0 0 1-13.589.659ZM848.915 305.612c-3.946-4.511-3.506-11.385.976-15.352 4.487-3.967 11.326-3.525 15.275.986 3.946 4.512 3.506 11.383-.981 15.352-4.487 3.967-11.324 3.526-15.27-.986ZM884.312 277.964c-3.804-5.475-2.468-13.008 2.981-16.83 5.443-3.817 12.938-2.477 16.737 2.998 3.797 5.476 2.464 13.011-2.98 16.83-5.446 3.818-12.941 2.48-16.738-2.998ZM925.933 255.177c-3.481-6.454-1.1-14.528 5.322-18.029 6.417-3.5 14.446-1.106 17.927 5.348 3.482 6.457 1.1 14.528-5.319 18.029-6.42 3.498-14.446 1.106-17.93-5.348ZM973.104 238.294c-2.992-7.425.571-15.881 7.959-18.887 7.381-3.008 15.794.577 18.787 8 2.99 7.425-.574 15.883-7.957 18.889-7.388 3.006-15.796-.576-18.789-8.002ZM1024.99 228.27c-2.32-8.356 2.53-17.027 10.84-19.364 8.32-2.337 16.94 2.547 19.26 10.906 2.33 8.356-2.53 17.029-10.84 19.364-8.32 2.337-16.93-2.547-19.26-10.906ZM1080.61 225.933c-1.48-9.227 4.76-17.916 13.93-19.409 9.18-1.49 17.82 4.776 19.3 14.004 1.49 9.228-4.75 17.914-13.92 19.407-9.18 1.493-17.82-4.776-19.31-14.002ZM832.242 572.87a1.21 1.21 0 0 1-1.068-1.336 1.202 1.202 0 0 1 1.329-1.066c.658.07 1.135.669 1.063 1.331a1.203 1.203 0 0 1-1.324 1.071ZM817.854 545.167a2.415 2.415 0 0 1-1.818-2.888 2.406 2.406 0 0 1 2.873-1.831 2.42 2.42 0 0 1 1.818 2.889 2.405 2.405 0 0 1-2.873 1.83ZM809.604 514.253a3.633 3.633 0 0 1-2.23-4.613 3.607 3.607 0 0 1 4.589-2.242 3.633 3.633 0 0 1 2.228 4.616c-.651 1.89-2.707 2.896-4.587 2.239ZM807.985 481.18c-2.397-1.151-3.412-4.035-2.265-6.446a4.795 4.795 0 0 1 6.41-2.28c2.398 1.151 3.412 4.037 2.267 6.447a4.796 4.796 0 0 1-6.412 2.279ZM813.339 447.076c-2.816-1.768-3.676-5.496-1.92-8.327 1.756-2.834 5.466-3.7 8.28-1.932 2.818 1.767 3.677 5.497 1.922 8.326a5.996 5.996 0 0 1-8.282 1.933ZM825.832 413.099c-3.124-2.487-3.65-7.049-1.177-10.187a7.19 7.19 0 0 1 10.132-1.183c3.124 2.486 3.653 7.048 1.177 10.189a7.185 7.185 0 0 1-10.132 1.181ZM845.458 380.44c-3.298-3.291-3.315-8.646-.037-11.964a8.377 8.377 0 0 1 11.898-.035c3.303 3.29 3.315 8.648.042 11.964a8.383 8.383 0 0 1-11.903.035ZM872.037 350.287c-3.322-4.164-2.662-10.251 1.481-13.594 4.144-3.343 10.194-2.674 13.521 1.488 3.328 4.164 2.665 10.249-1.472 13.594-4.145 3.346-10.202 2.677-13.53-1.488ZM905.225 323.788c-3.196-5.076-1.694-11.797 3.355-15.008 5.048-3.213 11.733-1.702 14.929 3.373 3.196 5.078 1.692 11.797-3.357 15.013-5.049 3.213-11.731 1.7-14.927-3.378ZM944.486 302.047c-2.9-6.005-.41-13.238 5.563-16.154 5.972-2.913 13.164-.409 16.069 5.593 2.896 6.007.408 13.24-5.565 16.153-5.972 2.916-13.166.415-16.067-5.592ZM989.144 286.086c-2.436-6.921 1.172-14.521 8.061-16.965 6.885-2.452 14.435 1.178 16.875 8.101 2.43 6.924-1.18 14.519-8.06 16.968-6.886 2.447-14.442-1.179-16.876-8.104ZM1038.36 276.83c-1.8-7.802 3.04-15.594 10.8-17.401 7.76-1.81 15.51 3.053 17.31 10.855 1.8 7.802-3.04 15.597-10.8 17.404-7.76 1.81-15.51-3.053-17.31-10.858ZM1091.17 275.09c-1-8.621 5.14-16.418 13.72-17.419 8.57-1.001 16.33 5.178 17.33 13.797.99 8.621-5.16 16.423-13.73 17.421-8.57 1.001-16.33-5.178-17.32-13.799ZM847.172 585.131a1.206 1.206 0 0 1-.845-1.483 1.2 1.2 0 1 1 2.317.634 1.194 1.194 0 0 1-1.472.849ZM837.271 555.509a2.423 2.423 0 0 1-1.346-3.139 2.395 2.395 0 0 1 3.121-1.353 2.419 2.419 0 0 1 1.349 3.138 2.4 2.4 0 0 1-3.124 1.354ZM833.933 523.678a3.634 3.634 0 0 1-1.482-4.906 3.596 3.596 0 0 1 4.879-1.493c1.758.944 2.419 3.141 1.483 4.909a3.6 3.6 0 0 1-4.88 1.49ZM837.482 490.757a4.851 4.851 0 0 1-1.237-6.723 4.791 4.791 0 0 1 6.688-1.241 4.85 4.85 0 0 1 1.236 6.723 4.791 4.791 0 0 1-6.687 1.241ZM848.076 457.914a6.061 6.061 0 0 1-.599-8.524 5.986 5.986 0 0 1 8.478-.607c2.506 2.187 2.774 6.007.601 8.526a5.989 5.989 0 0 1-8.48.605ZM865.7 426.321c-2.697-2.946-2.506-7.533.422-10.247a7.19 7.19 0 0 1 10.194.425c2.697 2.946 2.508 7.537-.422 10.249a7.19 7.19 0 0 1-10.194-.427ZM890.168 397.152c-2.744-3.77-1.929-9.065 1.82-11.824a8.39 8.39 0 0 1 11.762 1.835c2.744 3.773 1.929 9.066-1.821 11.824-3.752 2.759-9.017 1.938-11.761-1.835ZM921.113 371.551c-2.637-4.636-1.033-10.545 3.573-13.192 4.615-2.654 10.488-1.044 13.127 3.593 2.635 4.639 1.036 10.543-3.573 13.195-4.614 2.654-10.49 1.041-13.127-3.596ZM958.013 350.594c-2.367-5.515.161-11.914 5.647-14.293 5.488-2.379 11.855.162 14.222 5.68 2.367 5.518-.161 11.919-5.65 14.298-5.488 2.38-11.855-.164-14.219-5.685ZM1000.17 335.297c-1.927-6.386 1.66-13.135 8.01-15.08 6.35-1.939 13.07 1.663 15 8.055 1.93 6.386-1.65 13.14-8.01 15.077-6.35 1.94-13.07-1.663-15-8.052ZM1046.76 326.557c-1.32-7.218 3.42-14.159 10.6-15.492 7.19-1.336 14.08 3.438 15.41 10.658 1.33 7.22-3.42 14.159-10.6 15.492-7.18 1.333-14.08-3.436-15.41-10.658ZM1096.82 325.158c-.57-7.991 5.42-14.927 13.37-15.491 7.95-.567 14.84 5.455 15.41 13.444.56 7.992-5.43 14.925-13.38 15.492-7.94.567-14.84-5.455-15.4-13.445ZM860.011 599.592a1.212 1.212 0 0 1-.609-1.598 1.203 1.203 0 0 1 1.594-.604c.604.272.877.989.601 1.598-.27.609-.983.879-1.586.604ZM854.838 568.776a2.42 2.42 0 0 1-.837-3.311 2.394 2.394 0 0 1 3.293-.846 2.427 2.427 0 0 1 .844 3.313 2.405 2.405 0 0 1-3.3.844ZM856.494 536.813a3.643 3.643 0 0 1-.7-5.08 3.591 3.591 0 0 1 5.051-.704 3.637 3.637 0 0 1 .703 5.078 3.593 3.593 0 0 1-5.054.706ZM865.124 504.856a4.851 4.851 0 0 1-.174-6.836 4.789 4.789 0 0 1 6.797-.175 4.855 4.855 0 0 1 .174 6.836 4.789 4.789 0 0 1-6.797.175ZM880.697 474.082c-2.136-2.554-1.806-6.369.735-8.513a5.988 5.988 0 0 1 8.468.736c2.136 2.554 1.808 6.369-.73 8.514a5.993 5.993 0 0 1-8.473-.737ZM903.022 445.655c-2.208-3.338-1.304-7.84 2.011-10.057 3.318-2.219 7.796-1.31 10.003 2.023 2.203 3.338 1.304 7.837-2.014 10.054-3.317 2.217-7.795 1.311-10-2.02ZM931.724 420.688c-2.123-4.154-.494-9.257 3.643-11.389 4.133-2.135 9.206-.495 11.329 3.662 2.124 4.157.497 9.255-3.64 11.39-4.132 2.137-9.206.499-11.332-3.663ZM966.275 400.271c-1.883-4.994.618-10.579 5.582-12.469 4.972-1.892 10.52.622 12.405 5.615 1.882 4.994-.616 10.576-5.58 12.469-4.972 1.895-10.527-.622-12.407-5.615ZM1005.98 385.375c-1.48-5.819 2.01-11.741 7.8-13.229 5.79-1.488 11.69 2.027 13.17 7.847 1.48 5.824-2.02 11.746-7.81 13.232-5.79 1.488-11.68-2.025-13.16-7.85ZM1050 376.897c-.91-6.614 3.68-12.716 10.26-13.632 6.58-.919 12.64 3.698 13.56 10.309.91 6.613-3.68 12.718-10.26 13.634-6.57.919-12.64-3.695-13.56-10.311ZM1097.38 375.591c-.19-7.338 5.58-13.444 12.88-13.632 7.3-.189 13.37 5.608 13.56 12.951.19 7.34-5.58 13.442-12.88 13.634-7.3.187-13.37-5.613-13.56-12.953ZM870.438 615.893a1.215 1.215 0 0 1-.348-1.673 1.202 1.202 0 0 1 1.667-.35c.553.367.707 1.119.345 1.673a1.197 1.197 0 0 1-1.664.35ZM870.128 584.645a2.424 2.424 0 0 1-.313-3.403 2.393 2.393 0 0 1 3.385-.318 2.428 2.428 0 0 1 .315 3.403 2.395 2.395 0 0 1-3.387.318ZM876.738 553.334a3.637 3.637 0 0 1 .097-5.126 3.598 3.598 0 0 1 5.101.097 3.639 3.639 0 0 1-.097 5.126 3.593 3.593 0 0 1-5.101-.097ZM890.23 523.129a4.854 4.854 0 0 1 .894-6.781 4.795 4.795 0 0 1 6.743.899c1.614 2.12 1.214 5.156-.894 6.778a4.794 4.794 0 0 1-6.743-.896ZM910.4 495.181c-1.711-2.858-.792-6.571 2.054-8.293 2.841-1.721 6.536-.799 8.247 2.059 1.713 2.861.794 6.576-2.046 8.299a6 6 0 0 1-8.255-2.065ZM936.877 470.614c-1.661-3.64-.069-7.947 3.549-9.615 3.623-1.67 7.907-.069 9.566 3.571 1.659 3.645.067 7.947-3.556 9.614-3.621 1.668-7.9.073-9.559-3.57ZM969.111 450.474c-1.453-4.44.951-9.221 5.366-10.679 4.416-1.458 9.174.959 10.622 5.398 1.452 4.439-.951 9.218-5.369 10.678-4.416 1.458-9.169-.958-10.619-5.397ZM1006.41 435.738c-1.08-5.228 2.26-10.348 7.46-11.437 5.2-1.089 10.29 2.269 11.37 7.495 1.08 5.228-2.25 10.349-7.45 11.442-5.2 1.086-10.3-2.269-11.38-7.5ZM1047.94 427.272c-.55-5.98 3.82-11.28 9.77-11.839 5.95-.559 11.22 3.837 11.78 9.822.56 5.982-3.82 11.282-9.77 11.841-5.95.557-11.22-3.839-11.78-9.824ZM1092.74 425.821c.13-6.673 5.62-11.981 12.26-11.854 6.63.13 11.91 5.643 11.79 12.319-.13 6.676-5.62 11.981-12.26 11.854-6.63-.13-11.92-5.642-11.79-12.319ZM878.204 633.634a1.212 1.212 0 0 1-.085-1.705 1.2 1.2 0 0 1 1.701-.082 1.21 1.21 0 0 1 .08 1.705 1.191 1.191 0 0 1-1.696.082ZM882.76 602.723a2.426 2.426 0 0 1 .221-3.413 2.395 2.395 0 0 1 3.39.22 2.428 2.428 0 0 1-.216 3.412 2.4 2.4 0 0 1-3.395-.219ZM894.159 572.838a3.644 3.644 0 0 1 .896-5.051 3.593 3.593 0 0 1 5.019.899 3.634 3.634 0 0 1-.894 5.048 3.592 3.592 0 0 1-5.021-.896ZM912.188 545.125a4.846 4.846 0 0 1 1.937-6.556 4.797 4.797 0 0 1 6.519 1.947c1.264 2.347.397 5.283-1.937 6.554a4.795 4.795 0 0 1-6.519-1.945ZM936.458 520.695c-1.245-3.093.238-6.616 3.315-7.87 3.077-1.253 6.581.24 7.827 3.334 1.247 3.093-.238 6.616-3.312 7.871-3.08 1.251-6.581-.244-7.83-3.335ZM966.429 500.592c-1.075-3.858 1.17-7.86 5.004-8.938 3.837-1.076 7.817 1.175 8.888 5.033 1.073 3.857-1.167 7.857-5.004 8.935-3.837 1.079-7.815-1.176-8.888-5.03ZM1001.4 485.769c-.75-4.614 2.38-8.956 6.96-9.705 4.59-.744 8.91 2.39 9.65 7.004.74 4.613-2.37 8.958-6.96 9.707-4.59.741-8.91-2.39-9.65-7.006ZM1040.53 477.081c-.25-5.331 3.84-9.867 9.15-10.122 5.3-.257 9.81 3.86 10.07 9.193.26 5.333-3.84 9.867-9.14 10.126-5.31.26-9.82-3.862-10.08-9.197ZM1082.87 475.253c.39-5.992 5.53-10.543 11.49-10.156 5.97.382 10.49 5.552 10.11 11.552-.38 5.994-5.53 10.543-11.49 10.159-5.97-.385-10.49-5.558-10.11-11.555ZM1127.35 480.866c1.16-6.574 7.4-10.951 13.94-9.78 6.54 1.171 10.89 7.445 9.73 14.019-1.16 6.571-7.41 10.953-13.94 9.779-6.54-1.168-10.9-7.445-9.73-14.018ZM883.113 652.379a1.209 1.209 0 0 1 .181-1.698 1.203 1.203 0 0 1 1.694.185c.415.519.33 1.283-.186 1.7a1.199 1.199 0 0 1-1.689-.187ZM892.423 622.564a2.426 2.426 0 0 1 .747-3.336 2.4 2.4 0 0 1 3.318.749 2.432 2.432 0 0 1-.747 3.338 2.4 2.4 0 0 1-3.318-.751ZM908.331 594.838a3.643 3.643 0 0 1 1.669-4.846 3.601 3.601 0 0 1 4.823 1.676c.866 1.805.121 3.972-1.669 4.848a3.6 3.6 0 0 1-4.823-1.678ZM930.45 570.304c-.884-2.52.427-5.281 2.931-6.17a4.798 4.798 0 0 1 6.136 2.946c.887 2.52-.427 5.281-2.93 6.17-2.504.888-5.25-.43-6.137-2.946ZM958.221 549.993c-.747-3.253 1.267-6.501 4.503-7.255 3.23-.754 6.461 1.273 7.209 4.526.75 3.251-1.264 6.497-4.495 7.253-3.236.752-6.464-1.276-7.217-4.524ZM990.952 534.851c-.46-3.98 2.379-7.58 6.335-8.044 3.953-.46 7.533 2.392 8.003 6.369.45 3.979-2.39 7.58-6.339 8.042-3.959.459-7.537-2.39-7.999-6.367ZM1027.8 525.711c-.02-4.674 3.74-8.476 8.39-8.489 4.64-.015 8.42 3.758 8.44 8.431.01 4.677-3.74 8.476-8.39 8.491-4.65.015-8.43-3.76-8.44-8.433ZM1067.8 523.284c.58-5.311 5.33-9.143 10.61-8.561 5.28.582 9.09 5.353 8.52 10.663-.58 5.311-5.33 9.14-10.61 8.566-5.28-.582-9.09-5.358-8.52-10.668ZM1109.9 528.137c1.32-5.862 7.11-9.544 12.93-8.226 5.84 1.316 9.5 7.135 8.19 13-1.31 5.86-7.1 9.545-12.93 8.226-5.83-1.318-9.5-7.14-8.19-13ZM885.048 671.666a1.212 1.212 0 0 1 .442-1.65 1.198 1.198 0 0 1 1.641.449c.33.579.129 1.318-.444 1.65a1.199 1.199 0 0 1-1.639-.449ZM898.88 643.681a2.426 2.426 0 0 1 1.256-3.179 2.403 2.403 0 0 1 3.162 1.264 2.425 2.425 0 0 1-1.257 3.178 2.403 2.403 0 0 1-3.161-1.263ZM918.905 618.796c-.576-1.912.499-3.939 2.404-4.519a3.601 3.601 0 0 1 4.5 2.412 3.628 3.628 0 0 1-2.401 4.524 3.605 3.605 0 0 1-4.503-2.417ZM944.568 598.044c-.479-2.626 1.244-5.148 3.857-5.632 2.612-.487 5.123 1.248 5.602 3.874.482 2.627-1.242 5.148-3.854 5.633-2.613.487-5.118-1.251-5.605-3.875ZM975.16 582.35c-.233-3.33 2.265-6.219 5.573-6.454 3.313-.234 6.188 2.272 6.422 5.6.233 3.331-2.26 6.222-5.57 6.459-3.313.232-6.189-2.277-6.425-5.605ZM1009.84 572.543c.17-4.002 3.53-7.113 7.51-6.946 3.98.165 7.07 3.543 6.91 7.548-.17 4.002-3.53 7.113-7.51 6.943-3.98-.167-7.07-3.545-6.91-7.545ZM1047.66 569.31c.71-4.619 5.01-7.78 9.6-7.066 4.59.717 7.74 5.039 7.03 9.658-.71 4.621-5.01 7.782-9.61 7.065-4.59-.714-7.73-5.038-7.02-9.657ZM1087.55 573.205c1.4-5.151 6.68-8.192 11.8-6.786 5.13 1.405 8.15 6.718 6.76 11.871-1.4 5.154-6.68 8.192-11.81 6.789-5.12-1.403-8.15-6.719-6.75-11.874ZM1128.38 584.622c2.21-5.585 8.49-8.309 14.05-6.094 5.55 2.219 8.26 8.543 6.06 14.126-2.21 5.585-8.5 8.314-14.05 6.094-5.56-2.219-8.27-8.543-6.06-14.126Z"/></g></svg>