<svg xmlns="http://www.w3.org/2000/svg" xml:space="preserve" viewBox="0 0 800 800" opacity=".2">
  <defs>
    <clipPath id="a" clipPathUnits="userSpaceOnUse">
      <path d="M0 600h600V0H0Z"/>
    </clipPath>
  </defs>
  <g fill="#eeeeee" fill-opacity="0.2" clip-path="url(#a)" transform="matrix(1.33333 0 0 -1.33333 0 800)">
    <path d="M351.192 311.816ZM355.954 323.225a.485.485 0 1 0 .906.345.485.485 0 0 0-.906-.345M363.21 333.423a.969.969 0 1 0 1.877.48.969.969 0 0 0-1.877-.48M372.734 342.005a1.453 1.453 0 1 0 2.879.397 1.453 1.453 0 0 0-2.879-.397M384.241 348.599a1.939 1.939 0 0 0 1.888 1.986 1.936 1.936 0 1 0-1.888-1.986M397.392 352.88a2.422 2.422 0 0 0 4.823-.417 2.422 2.422 0 0 0-2.619-2.204 2.422 2.422 0 0 0-2.204 2.621M411.801 354.576a2.905 2.905 0 1 0 5.695-1.145 2.905 2.905 0 0 0-5.695 1.145M427.044 353.473a3.388 3.388 0 1 0 6.452-2.073 3.39 3.39 0 1 0-6.452 2.073M442.664 349.418a3.874 3.874 0 1 0 7.064-3.18 3.874 3.874 0 0 0-7.064 3.18M458.188 342.331a4.357 4.357 0 1 0 7.495-4.445 4.357 4.357 0 0 0-7.495 4.445M473.125 332.198a4.842 4.842 0 1 0 7.722-5.842 4.842 4.842 0 0 0-7.722 5.842M486.984 319.078a5.327 5.327 0 1 0 .194-7.529 5.328 5.328 0 0 0-.194 7.529M499.285 303.1a5.807 5.807 0 0 0 8.185-.709 5.808 5.808 0 0 0-.71-8.184 5.809 5.809 0 1 0-7.475 8.893M509.561 284.471a6.293 6.293 0 0 0 8.724-1.756 6.292 6.292 0 0 0-1.756-8.725 6.293 6.293 0 1 0-6.968 10.481M517.372 263.457a6.777 6.777 0 0 0 9.126-2.932 6.777 6.777 0 0 0-2.932-9.125 6.777 6.777 0 1 0-6.194 12.057M347.818 305.113ZM354.307 315.637a.483.483 0 1 0 .947.197.48.48 0 0 0-.375-.57.48.48 0 0 0-.572.373M363.069 324.576a.968.968 0 1 0 1.928.18.968.968 0 0 0-1.928-.18M373.818 331.562a1.453 1.453 0 1 0 2.904-.056 1.453 1.453 0 0 0-2.904.056M386.216 336.274a1.936 1.936 0 1 0 3.839-.504 1.936 1.936 0 0 0-3.839.504M399.874 338.446a2.418 2.418 0 0 0 2.933 1.765 2.422 2.422 0 0 0-1.167-4.699 2.423 2.423 0 0 0-1.766 2.934M414.371 337.867a2.905 2.905 0 1 0 5.447-2.025 2.905 2.905 0 0 0-5.447 2.025M429.254 334.393a3.388 3.388 0 1 0 6.047-3.058 3.389 3.389 0 1 0-6.047 3.058M444.047 327.945a3.873 3.873 0 1 0 6.479-4.247 3.873 3.873 0 0 0-6.479 4.247M458.271 318.516a4.357 4.357 0 1 0 6.707-5.564 4.357 4.357 0 0 0-6.707 5.564M471.439 306.17a4.842 4.842 0 1 0 6.712-6.976 4.842 4.842 0 0 0-6.712 6.976M483.075 291.043a5.327 5.327 0 0 0 7.467-.986 5.323 5.323 0 0 0-.987-7.465 5.325 5.325 0 0 0-6.48 8.451M492.725 273.34a5.811 5.811 0 0 0 7.974-1.981 5.811 5.811 0 0 0-1.982-7.974 5.808 5.808 0 0 0-7.973 1.982 5.809 5.809 0 0 0 1.981 7.973M499.959 253.332a6.294 6.294 0 1 0 5.244-11.445 6.294 6.294 0 0 0-5.244 11.445M504.389 231.355a6.777 6.777 0 1 0 4.23-12.878 6.778 6.778 0 1 0-4.23 12.878M343.439 299.023ZM351.494 308.402a.484.484 0 1 0 .967.047.483.483 0 1 0-.967-.047M361.546 315.859a.97.97 0 0 0 1.933-.123.968.968 0 0 0-1.933.123M373.256 321.078a1.452 1.452 0 1 0 2.86-.511 1.452 1.452 0 0 0-2.86.511M386.238 323.793a1.937 1.937 0 1 0 3.713-1.101 1.937 1.937 0 0 0-3.713 1.101M400.066 323.803a2.422 2.422 0 0 0 4.459-1.889 2.422 2.422 0 1 0-4.459 1.889M414.295 320.961a2.905 2.905 0 1 0 5.06-2.849 2.905 2.905 0 0 0-5.06 2.849M428.451 315.201a3.388 3.388 0 1 0 5.495-3.965 3.386 3.386 0 0 0-4.73-.765 3.386 3.386 0 0 0-.765 4.73M442.054 306.52a3.874 3.874 0 0 0 5.471.263 3.874 3.874 0 1 0-5.471-.263M454.629 294.982a4.357 4.357 0 1 0 5.753-6.546 4.357 4.357 0 0 0-5.753 6.546M465.701 280.727a4.84 4.84 0 0 0 6.741-1.2 4.841 4.841 0 1 0-6.741 1.2M474.829 263.967a5.325 5.325 0 1 0 5.077-9.362 5.326 5.326 0 0 0-7.22 2.141 5.327 5.327 0 0 0 2.143 7.221M481.59 244.971a5.81 5.81 0 1 0-3.203-7.565 5.807 5.807 0 0 0 3.203 7.565M485.605 224.078a6.293 6.293 0 1 0 3.39-12.121 6.293 6.293 0 0 0-3.39 12.121M486.542 201.68a6.779 6.779 0 1 0 2.164-13.382 6.779 6.779 0 0 0-2.164 13.382M338.16 293.691ZM347.582 301.695a.485.485 0 1 0 .962-.104.485.485 0 0 0-.962.104M358.678 307.488a.967.967 0 1 0 1.888-.421.967.967 0 0 0-1.888.421M371.061 310.811a1.451 1.451 0 1 0 2.744-.95 1.451 1.451 0 1 0-2.744.95M384.307 311.463a1.937 1.937 0 1 0 3.495-1.671 1.937 1.937 0 0 0-3.495 1.671M397.968 309.307a2.422 2.422 0 0 0 4.107-2.563 2.424 2.424 0 0 0-3.335-.773 2.422 2.422 0 0 0-.772 3.336M411.576 304.275a2.904 2.904 0 1 0 4.554-3.605 2.905 2.905 0 1 0-4.554 3.605M424.656 296.373a3.39 3.39 0 0 0 4.793.016 3.39 3.39 0 0 0-4.778-4.809 3.39 3.39 0 0 0-.015 4.793M436.733 285.67a3.873 3.873 0 1 0 4.85-6.04 3.873 3.873 0 0 0-4.85 6.04M447.348 272.307a4.357 4.357 0 0 0 4.66-7.364 4.358 4.358 0 0 0-4.66 7.364M456.056 256.496a4.841 4.841 0 1 0 4.228-8.71 4.841 4.841 0 0 0-4.228 8.71M462.449 238.514a5.325 5.325 0 0 0 6.795-3.246 5.326 5.326 0 1 0-6.795 3.246M466.155 218.695a5.81 5.81 0 1 0 2.625-11.32 5.81 5.81 0 0 0-2.625 11.32M466.854 197.43a6.294 6.294 0 1 0 1.448-12.505 6.294 6.294 0 0 0-1.448 12.505M464.273 175.16a6.778 6.778 0 1 0 .045-13.555 6.778 6.778 0 0 0-.045 13.555M332.112 289.252ZM342.671 295.684a.483.483 0 1 0 .933-.254.483.483 0 0 0-.933.254M354.536 299.67a.968.968 0 1 0 1.8-.717.968.968 0 0 0-1.8.717M367.285 301.014a1.454 1.454 0 0 0 2.563-1.368 1.452 1.452 0 0 0-2.563 1.368M380.471 299.586a1.935 1.935 0 0 0 3.19-2.195 1.936 1.936 0 1 0-3.19 2.195M393.626 295.318a2.42 2.42 0 1 0 3.657-3.172 2.42 2.42 0 1 0-3.657 3.172M406.279 288.223a2.907 2.907 0 0 0 4.105-.172 2.903 2.903 0 0 0-.17-4.104 2.903 2.903 0 0 0-4.105.17 2.908 2.908 0 0 0 .17 4.106M417.963 278.369a3.388 3.388 0 0 0 4.736-.734 3.388 3.388 0 1 0-5.47-4.002 3.386 3.386 0 0 0 .734 4.736M428.217 265.908a3.876 3.876 0 0 0 5.285-1.439 3.874 3.874 0 0 0-6.725-3.846 3.873 3.873 0 0 0 1.44 5.285M436.61 251.049a4.357 4.357 0 1 0 3.45-8.003 4.357 4.357 0 0 0-3.45 8.003M442.738 234.07a4.842 4.842 0 1 0 2.814-9.261 4.842 4.842 0 0 0-2.814 9.261M446.238 215.311a5.325 5.325 0 0 0 6.205-4.27 5.325 5.325 0 1 0-6.205 4.27M446.799 195.156a5.81 5.81 0 1 0 .82-11.589 5.81 5.81 0 0 0-.82 11.589M444.162 174.045a6.295 6.295 0 1 0-.524-12.577 6.295 6.295 0 0 0 .524 12.577M438.131 152.451a6.777 6.777 0 1 0-2.076-13.394 6.776 6.776 0 1 0 2.076 13.394M325.444 285.814ZM336.879 290.514c.109.244.396.353.641.244a.487.487 0 0 0 .242-.641c-.11-.244-.397-.353-.641-.244a.484.484 0 0 0-.242.641M349.222 292.596a.969.969 0 1 0 1.665-.99.969.969 0 0 0-1.665.99M362.024 291.928a1.453 1.453 0 1 0 2.318-1.752 1.453 1.453 0 0 0-2.318 1.752M374.823 288.453a1.938 1.938 0 0 0 2.74.072 1.938 1.938 0 0 0-2.668-2.808 1.935 1.935 0 0 0-.072 2.736M387.149 282.184a2.421 2.421 0 1 0 3.116-3.709 2.421 2.421 0 0 0-3.116 3.709M398.537 273.193a2.905 2.905 0 1 0 3.217-4.839 2.905 2.905 0 0 0-3.217 4.839M408.535 261.635a3.389 3.389 0 1 0 3.096-6.029 3.389 3.389 0 0 0-3.096 6.029M416.714 247.723a3.873 3.873 0 1 0 2.746-7.244 3.873 3.873 0 0 0-2.746 7.244M422.68 231.734a4.357 4.357 0 1 0 2.156-8.443 4.357 4.357 0 1 0-2.156 8.443M426.075 214.006a4.84 4.84 0 1 0 1.331-9.59 4.841 4.841 0 1 0-1.331 9.59M426.599 194.928a5.326 5.326 0 1 0 .274-10.649 5.326 5.326 0 0 0-.274 10.649M424 174.934a5.81 5.81 0 1 0-1.004-11.576A5.81 5.81 0 0 0 424 174.934M418.092 154.496a6.293 6.293 0 1 0-2.485-12.34 6.293 6.293 0 0 0 2.485 12.34M408.757 134.113a6.78 6.78 0 0 0 4.38-8.527 6.779 6.779 0 1 0-4.38 8.527M318.32 283.461ZM330.35 286.314a.484.484 0 1 0 .809-.53.484.484 0 0 0-.809.53M342.866 286.438a.968.968 0 1 0 1.491-1.238.968.968 0 0 0-1.491 1.238M355.406 283.777a1.45 1.45 0 0 0 2.054-.041 1.448 1.448 0 0 0-.038-2.05 1.451 1.451 0 1 0-2.016 2.091M367.505 278.344a1.938 1.938 0 1 0 2.356-3.077 1.938 1.938 0 0 0-2.356 3.077M378.698 270.221a2.42 2.42 0 1 0 2.499-4.146 2.42 2.42 0 0 0-2.499 4.146M388.539 259.561a2.907 2.907 0 0 0 3.852-1.43 2.905 2.905 0 1 0-3.852 1.43M396.606 246.58a3.388 3.388 0 1 0 2.115-6.437 3.387 3.387 0 1 0-2.115 6.437M402.508 231.561a3.873 3.873 0 1 0 1.58-7.583 3.873 3.873 0 0 0-1.58 7.583M405.898 214.836a4.36 4.36 0 0 0 4.744-3.934 4.357 4.357 0 1 0-4.744 3.934M406.479 196.795a4.843 4.843 0 0 0-.184-9.682 4.843 4.843 0 0 0 .184 9.682M404.012 177.871a5.327 5.327 0 1 0-5.978-4.582 5.328 5.328 0 0 0 5.978 4.582M398.317 158.527a5.807 5.807 0 0 0 4.238-7.037 5.81 5.81 0 0 0-11.277 2.801 5.809 5.809 0 0 0 7.039 4.236M389.285 139.266a6.294 6.294 0 1 0-4.385-11.8 6.294 6.294 0 0 0 4.385 11.8M376.876 120.594a6.778 6.778 0 1 0-6.114-12.098 6.779 6.779 0 0 0 6.114 12.098M310.916 282.25ZM323.244 283.186a.484.484 0 1 0 .719-.648.484.484 0 0 0-.719.648M335.625 281.352a.969.969 0 1 0 1.279-1.455.969.969 0 0 0-1.279 1.455M347.596 276.762a1.45 1.45 0 0 0 2.021-.362 1.45 1.45 0 1 0-2.382-1.66 1.453 1.453 0 0 0 .361 2.022M358.695 269.502a1.936 1.936 0 1 0 1.847-3.404 1.936 1.936 0 0 0-1.847 3.404M368.48 259.729a2.423 2.423 0 0 0 3.153-1.334 2.422 2.422 0 0 0-4.488-1.819 2.42 2.42 0 0 0 1.335 3.153M376.532 247.66a2.904 2.904 0 1 0 1.564-5.594 2.904 2.904 0 0 0-1.564 5.594M382.469 233.578a3.388 3.388 0 1 0 1.082-6.69 3.388 3.388 0 0 0-1.082 6.69M385.948 217.82a3.875 3.875 0 0 0 .373-7.738 3.874 3.874 0 0 0-.373 7.738M386.682 200.77a4.357 4.357 0 1 0-.56-8.696 4.357 4.357 0 0 0 .56 8.696M384.433 182.859a4.84 4.84 0 1 0-1.699-9.531 4.84 4.84 0 1 0 1.699 9.531M379.035 164.555a5.326 5.326 0 1 0-3.03-10.211 5.326 5.326 0 0 0 3.03 10.211M370.384 146.342a5.809 5.809 0 1 0-4.531-10.699 5.809 5.809 0 0 0-3.083 7.615 5.807 5.807 0 0 0 7.614 3.084M358.449 128.729a6.294 6.294 0 1 0-6.175-10.969 6.294 6.294 0 1 0 6.175 10.969M343.273 112.229a6.778 6.778 0 1 0-7.929-10.994 6.778 6.778 0 0 0 7.929 10.994M303.414 282.213ZM315.736 281.211a.485.485 0 1 0 .605-.756.485.485 0 0 0-.605.756M327.678 277.461a.97.97 0 0 0 1.036-1.637.971.971 0 0 0-1.337.301.97.97 0 0 0 .301 1.336M338.783 271.055a1.454 1.454 0 0 0 1.27-2.614 1.454 1.454 0 0 0-1.27 2.614M348.609 262.148a1.937 1.937 0 1 0 1.293-3.653 1.937 1.937 0 0 0-1.293 3.653M356.746 250.965a2.42 2.42 0 1 0 1.092-4.716 2.42 2.42 0 0 0-1.092 4.716M362.811 237.785a2.904 2.904 0 1 0 .67-5.77 2.904 2.904 0 0 0-.67 5.77M366.472 222.947a3.388 3.388 0 1 0 .022-6.777 3.388 3.388 0 1 0-.022 6.777M367.443 206.838a3.874 3.874 0 0 0 3.429-4.272 3.87 3.87 0 0 0-4.27-3.427 3.873 3.873 0 1 0 .841 7.699M365.5 189.883a4.357 4.357 0 1 0-5.208-3.293 4.355 4.355 0 0 0 5.208 3.293M360.477 172.547a4.842 4.842 0 1 0-3.168-9.151 4.842 4.842 0 0 0 3.168 9.151M352.282 155.311a5.327 5.327 0 0 0 2.511-7.102 5.327 5.327 0 0 0-9.611 4.592 5.327 5.327 0 0 0 7.1 2.51M340.889 138.676a5.81 5.81 0 1 0-6.148-9.857 5.81 5.81 0 0 0 6.148 9.857M326.346 123.146a6.294 6.294 0 1 0-7.814-9.865 6.294 6.294 0 0 0 7.814 9.865M308.775 109.223a6.779 6.779 0 1 0-9.555-9.618 6.779 6.779 0 0 0 9.555 9.618M295.998 283.35ZM308.012 280.432a.484.484 0 1 0 .48-.841.484.484 0 0 0-.48.841M319.221 274.861a.967.967 0 1 0 .765-1.777.967.967 0 0 0-.765 1.777M329.186 266.797a1.451 1.451 0 1 0-.967-1.813 1.453 1.453 0 0 0 .967 1.813M337.499 256.463a1.937 1.937 0 1 0 .705-3.809 1.937 1.937 0 0 0-.705 3.809M343.785 244.143a2.421 2.421 0 1 0 .342-4.83 2.421 2.421 0 0 0-.342 4.83M347.713 230.178a2.906 2.906 0 0 0-.24-5.805 2.906 2.906 0 0 0 .24 5.805M349.008 214.949a3.389 3.389 0 1 0-1.038-6.696 3.389 3.389 0 0 0 1.038 6.696M347.447 198.887a3.873 3.873 0 1 0-2.035-7.474 3.873 3.873 0 0 0 2.035 7.474M342.876 182.445a4.357 4.357 0 1 0-3.219-8.097 4.357 4.357 0 0 0 3.219 8.097M335.203 166.107a4.842 4.842 0 1 0-4.56-8.538 4.842 4.842 0 0 0 4.56 8.538M324.413 150.367a5.326 5.326 0 1 0-6.04-8.774 5.326 5.326 0 0 0 6.04 8.774M310.558 135.717a5.812 5.812 0 0 0 .58-8.196 5.813 5.813 0 0 0-8.197-.578 5.81 5.81 0 1 0 7.617 8.774M293.765 122.654a6.295 6.295 0 0 0-9.263-8.523 6.294 6.294 0 1 0 9.263 8.523M274.232 111.652a6.778 6.778 0 1 0-10.942-8.004 6.778 6.778 0 0 0 10.942 8.004M288.852 285.633ZM300.261 280.871a.484.484 0 1 0 .342-.902.484.484 0 0 0-.342.902M310.46 273.615a.965.965 0 0 0 1.177-.697.967.967 0 1 0-1.177.697M319.041 264.092a1.452 1.452 0 1 0 .402-2.878 1.452 1.452 0 0 0-.402 2.878M325.635 252.584a1.936 1.936 0 1 0 .102-3.87 1.936 1.936 0 0 0-.102 3.87M329.916 239.434a2.421 2.421 0 1 0-.418-4.824 2.421 2.421 0 0 0 .418 4.824M331.612 225.025a2.905 2.905 0 1 0-1.146-5.696 2.905 2.905 0 0 0 1.146 5.696M330.509 209.783a3.39 3.39 0 1 0-2.074-6.454 3.39 3.39 0 0 0 2.074 6.454M326.455 194.162a3.873 3.873 0 1 0-3.182-7.063 3.873 3.873 0 0 0 3.182 7.063M319.367 178.637a4.357 4.357 0 1 0-5.971-1.524 4.356 4.356 0 0 0 5.971 1.524M309.232 163.701a4.84 4.84 0 1 0-5.839-7.722 4.84 4.84 0 1 0 5.839 7.722M296.113 149.842a5.327 5.327 0 0 0-7.335-7.723 5.327 5.327 0 0 0 7.335 7.723M280.137 137.541a5.81 5.81 0 0 0-.709-8.186 5.812 5.812 0 0 0-8.186.711 5.809 5.809 0 0 0 .71 8.184 5.807 5.807 0 0 0 8.185-.709M261.507 127.266a6.293 6.293 0 0 0-1.756-8.725 6.292 6.292 0 0 0-8.726 1.756 6.297 6.297 0 0 0 1.756 8.726 6.295 6.295 0 0 0 8.726-1.757M240.494 119.455a6.782 6.782 0 0 0-2.931-9.129 6.78 6.78 0 0 0-9.127 2.934 6.778 6.778 0 0 0 12.058 6.195M282.15 289.008ZM292.674 282.52a.485.485 0 0 0 .197-.95.486.486 0 0 0-.197.95M301.612 273.756a.967.967 0 0 0 1.054-.873.969.969 0 1 0-1.054.873M308.599 263.008a1.453 1.453 0 0 0-.056-2.904 1.45 1.45 0 0 0-1.424 1.478 1.454 1.454 0 0 0 1.48 1.426M313.311 250.609a1.937 1.937 0 1 0-.506-3.84 1.937 1.937 0 0 0 .506 3.84M315.482 236.951a2.42 2.42 0 1 0-1.167-4.697 2.42 2.42 0 1 0 1.167 4.697M314.902 222.455a2.904 2.904 0 1 0-2.021-5.445 2.903 2.903 0 1 0 2.021 5.445M311.429 207.572a3.387 3.387 0 0 0 1.496-4.552 3.39 3.39 0 1 0-1.496 4.552M304.98 192.779a3.874 3.874 0 1 0-4.243-6.478 3.874 3.874 0 0 0 4.243 6.478M295.553 178.555a4.357 4.357 0 1 0-5.564-6.707 4.357 4.357 0 0 0 5.564 6.707M283.206 165.387a4.842 4.842 0 1 0-6.845.133 4.841 4.841 0 0 0 6.845-.133M268.08 153.75a5.327 5.327 0 1 0-8.452-6.478 5.327 5.327 0 0 0 8.452 6.478M250.376 144.1a5.81 5.81 0 1 0-9.954-5.99 5.81 5.81 0 0 0 9.954 5.99M230.368 136.867a6.294 6.294 0 1 0-11.441-5.244 6.294 6.294 0 0 0 11.441 5.244M208.392 132.438a6.777 6.777 0 1 0-12.878-4.231 6.777 6.777 0 1 0 12.878 4.231M276.059 293.387ZM285.438 285.332a.484.484 0 1 0 .046-.966.484.484 0 0 0-.046.966M292.896 275.279a.966.966 0 1 0-.125-1.931.968.968 0 1 0 .125 1.931M298.114 263.57a1.452 1.452 0 1 0-.51-2.86 1.452 1.452 0 0 0 .51 2.86M300.829 250.588a1.937 1.937 0 0 0-1.1-3.713 1.937 1.937 0 0 0 1.1 3.713M300.838 236.758a2.42 2.42 0 1 0-1.888-4.457 2.42 2.42 0 0 0 1.888 4.457M297.998 222.531a2.905 2.905 0 1 0-2.851-5.063 2.905 2.905 0 0 0 2.851 5.063M292.238 208.375a3.388 3.388 0 1 0-3.965-5.496 3.388 3.388 0 0 0 3.965 5.496M283.555 194.771a3.872 3.872 0 1 0-5.208-5.734 3.872 3.872 0 0 0 5.208 5.734M272.018 182.197a4.357 4.357 0 1 0-6.544-5.753 4.357 4.357 0 0 0 6.544 5.753M257.764 171.125a4.843 4.843 0 0 0-7.942-5.541 4.841 4.841 0 0 0 7.942 5.541M241.003 161.996a5.329 5.329 0 0 0-2.143-7.221 5.325 5.325 0 1 0 2.143 7.221M222.008 155.234a5.81 5.81 0 1 0-7.566 3.205 5.809 5.809 0 0 0 7.566-3.205M201.115 151.221a6.294 6.294 0 0 0-4.367-7.756 6.292 6.292 0 0 0-7.756 4.365 6.295 6.295 0 0 0 12.123 3.391M178.716 150.283a6.778 6.778 0 1 0-13.382-2.164 6.78 6.78 0 0 0 5.607 7.774 6.78 6.78 0 0 0 7.775-5.61M270.729 298.666ZM278.732 289.242a.48.48 0 0 0 .428-.533.482.482 0 0 0-.533-.428.486.486 0 0 0-.429.533.482.482 0 0 0 .534.428M284.525 278.148a.968.968 0 1 0-.424-1.889.968.968 0 0 0 .424 1.889M287.848 265.766a1.452 1.452 0 1 0-.952-2.744 1.452 1.452 0 0 0 .952 2.744M288.498 252.52a1.938 1.938 0 1 0-1.67-3.497 1.938 1.938 0 0 0 1.67 3.497M286.344 238.857a2.42 2.42 0 1 0-2.565-4.106 2.42 2.42 0 0 0 2.565 4.106M281.313 225.25a2.906 2.906 0 1 0-3.61-4.553 2.906 2.906 0 0 0 3.61 4.553M273.408 212.17a3.388 3.388 0 1 0-4.774-4.81 3.388 3.388 0 0 0 4.774 4.81M262.705 200.092a3.875 3.875 0 0 0-.596-5.446 3.874 3.874 0 0 0-4.85 6.042 3.875 3.875 0 0 0 5.446-.596M249.342 189.479a4.358 4.358 0 1 0-7.366-4.66 4.358 4.358 0 0 0 7.366 4.66M233.531 180.77a4.84 4.84 0 1 0-8.709-4.23 4.84 4.84 0 0 0 8.709 4.23M215.55 174.377a5.326 5.326 0 1 0-10.042-3.552 5.326 5.326 0 0 0 10.042 3.552M195.73 170.67a5.81 5.81 0 1 0-6.97 4.348 5.806 5.806 0 0 0 6.97-4.348M174.467 169.973a6.294 6.294 0 1 0-12.504-1.45 6.294 6.294 0 0 0 12.504 1.45M152.197 172.553a6.778 6.778 0 1 0-13.556-.046 6.778 6.778 0 0 0 13.556.046M266.289 304.713ZM272.72 294.154a.484.484 0 1 0-.254-.932.484.484 0 0 0 .254.932M276.706 282.289a.967.967 0 1 0-.716-1.799.968.968 0 1 0 .716 1.799M278.051 269.541a1.452 1.452 0 1 0-1.37-2.561 1.452 1.452 0 0 0 1.37 2.561M276.621 256.355a1.937 1.937 0 1 0-2.196-3.191 1.937 1.937 0 0 0 2.196 3.191M272.355 243.199a2.42 2.42 0 1 0-3.172-3.656 2.421 2.421 0 1 0 3.172 3.656M265.258 230.547a2.907 2.907 0 0 0-.17-4.106 2.908 2.908 0 0 0-4.106.17 2.906 2.906 0 0 0 4.276 3.936M255.405 218.863a3.389 3.389 0 1 0-5.468-4.003 3.389 3.389 0 0 0 5.468 4.003M242.943 208.609a3.872 3.872 0 0 0-1.439-5.285 3.87 3.87 0 0 0-5.284 1.44 3.873 3.873 0 1 0 6.723 3.845M228.086 200.215a4.357 4.357 0 1 0-8.002-3.45 4.357 4.357 0 0 0 8.002 3.45M211.107 194.088a4.841 4.841 0 1 0-9.264-2.814 4.841 4.841 0 0 0 9.264 2.814M192.347 190.588a5.326 5.326 0 0 0-10.474-1.938 5.326 5.326 0 0 0 10.474 1.938M172.191 190.027a5.81 5.81 0 0 0-5.384-6.207 5.811 5.811 0 0 0-.821 11.592 5.808 5.808 0 0 0 6.205-5.385M151.08 192.664a6.293 6.293 0 1 0-12.576.524 6.295 6.295 0 0 0 12.576-.524M129.488 198.695a6.778 6.778 0 1 0-13.396 2.076 6.778 6.778 0 0 0 13.396-2.076M262.85 311.381ZM267.55 299.947a.484.484 0 1 0-.397-.883.484.484 0 0 0 .397.883M269.631 287.604a.968.968 0 1 0-.989-1.665.968.968 0 0 0 .989 1.665M268.965 274.803a1.454 1.454 0 0 0-1.752-2.319 1.452 1.452 0 1 0 1.752 2.319M265.49 262.002a1.937 1.937 0 1 0-2.667-2.809 1.937 1.937 0 0 0 2.667 2.809M259.219 249.676a2.42 2.42 0 1 0-3.706-3.114 2.42 2.42 0 0 0 3.706 3.114M250.229 238.289a2.905 2.905 0 1 0-4.838-3.217 2.905 2.905 0 0 0 4.838 3.217M238.67 228.291a3.387 3.387 0 0 0-1.465-4.562 3.387 3.387 0 0 0-4.562 1.464 3.39 3.39 0 0 0 1.464 4.565 3.392 3.392 0 0 0 4.563-1.467M224.759 220.111a3.873 3.873 0 1 0-7.243-2.745 3.873 3.873 0 0 0 7.243 2.745M208.77 214.146a4.358 4.358 0 1 0-8.445-2.152 4.358 4.358 0 0 0 8.445 2.152M191.042 210.75a4.84 4.84 0 1 0-9.591-1.33 4.841 4.841 0 1 0 9.591 1.33M171.965 210.227a5.328 5.328 0 0 0-5.188-5.461 5.326 5.326 0 1 0 5.188 5.461M151.97 212.826a5.808 5.808 0 0 0-6.289-5.285 5.808 5.808 0 1 0 1.003 11.574 5.807 5.807 0 0 0 5.286-6.289M131.531 218.734a6.293 6.293 0 1 0-12.34 2.485 6.296 6.296 0 0 0 7.413 4.927 6.292 6.292 0 0 0 4.927-7.412M111.148 228.068a6.778 6.778 0 1 0-12.905 4.147 6.778 6.778 0 1 0 12.905-4.147M260.496 318.506ZM263.35 306.477a.484.484 0 1 0-.531-.81.484.484 0 0 0 .531.81M263.475 293.959a.968.968 0 1 0-1.237-1.49.97.97 0 0 0-.127 1.365.97.97 0 0 0 1.364.125M260.813 281.42a1.453 1.453 0 1 0-2.095-2.015 1.453 1.453 0 0 0 2.095 2.015M255.379 269.32a1.936 1.936 0 1 0-3.071-2.356 1.936 1.936 0 0 0 3.071 2.356M247.258 258.127a2.42 2.42 0 1 0-4.149-2.496 2.42 2.42 0 0 0 4.149 2.496M236.597 248.287a2.905 2.905 0 1 0-5.281-2.42 2.905 2.905 0 0 0 5.281 2.42M223.616 240.219a3.39 3.39 0 0 0-2.161-4.278 3.391 3.391 0 0 0-4.277 2.164 3.387 3.387 0 0 0 2.162 4.276 3.386 3.386 0 0 0 4.276-2.162M208.597 234.318a3.874 3.874 0 1 0-7.583-1.579 3.874 3.874 0 0 0 7.583 1.579M191.871 230.928a4.355 4.355 0 0 0-3.933-4.742 4.356 4.356 0 1 0-.809 8.675 4.356 4.356 0 0 0 4.742-3.933M173.83 230.346a4.84 4.84 0 1 0-4.747 4.933 4.838 4.838 0 0 0 4.747-4.933M154.906 232.814a5.325 5.325 0 1 0-10.558 1.394 5.325 5.325 0 0 0 10.558-1.394M135.564 238.51a5.81 5.81 0 1 0-11.278 2.8 5.81 5.81 0 0 0 11.278-2.8M116.301 247.541a6.293 6.293 0 0 0-8.091-3.707 6.294 6.294 0 1 0 8.091 3.707M97.63 259.949a6.78 6.78 0 0 0-9.107-2.992 6.78 6.78 0 0 0-2.992 9.107 6.78 6.78 0 0 0 9.106 2.993 6.78 6.78 0 0 0 2.993-9.108M259.286 325.91ZM260.223 313.582a.484.484 0 1 0-.65-.717.484.484 0 0 0 .65.717M258.389 301.201a.968.968 0 1 0-1.455-1.279.968.968 0 1 0 1.455 1.279M253.798 289.23a1.452 1.452 0 1 0-2.381-1.66 1.452 1.452 0 0 0 2.381 1.66M246.538 278.131a1.937 1.937 0 1 0-3.401-1.846 1.937 1.937 0 0 0 3.401 1.846M236.766 268.346a2.422 2.422 0 1 0-4.49-1.816 2.422 2.422 0 0 0 4.49 1.816M224.696 260.295a2.904 2.904 0 1 0-5.595-1.568 2.904 2.904 0 0 0 5.595 1.568M210.613 254.357a3.387 3.387 0 1 0-6.689-1.082 3.389 3.389 0 1 0 6.689 1.082M194.855 250.877a3.873 3.873 0 1 0-4.055 3.684 3.873 3.873 0 0 0 4.055-3.684M177.806 250.145a4.358 4.358 0 1 0-8.697.56 4.358 4.358 0 0 0 8.697-.56M159.896 252.393a4.842 4.842 0 1 0-9.533 1.697 4.842 4.842 0 0 0 9.533-1.697M141.591 257.791a5.326 5.326 0 1 0-10.211 3.032 5.326 5.326 0 0 0 10.211-3.032M123.378 266.441a5.807 5.807 0 0 0-7.614-3.084 5.811 5.811 0 0 0 4.531 10.7 5.81 5.81 0 0 0 3.083-7.616M105.766 278.377a6.296 6.296 0 0 0-8.572-2.398 6.294 6.294 0 1 0 6.175 10.968 6.292 6.292 0 0 0 2.397-8.57M89.265 293.553a6.78 6.78 0 0 0-9.463-1.532 6.78 6.78 0 0 0 7.931 10.995 6.778 6.778 0 0 0 1.532-9.463M259.249 333.412ZM258.246 321.09a.482.482 0 0 0-.074-.68.483.483 0 1 0 .074.68M254.496 309.148a.966.966 0 0 0-.3-1.335.968.968 0 1 0 .3 1.335M248.091 298.043a1.453 1.453 0 1 0-2.614-1.268 1.453 1.453 0 0 0 2.614 1.268M239.184 288.215a1.937 1.937 0 1 0-3.654-1.29 1.937 1.937 0 0 0 3.654 1.29M228.001 280.08a2.42 2.42 0 1 0-4.716-1.092 2.42 2.42 0 0 0 4.716 1.092M214.82 274.016a2.904 2.904 0 1 0-5.77-.672 2.904 2.904 0 0 0 5.77.672M199.982 270.354a3.389 3.389 0 1 0-6.776-.022 3.387 3.387 0 0 0 3.378 3.4 3.386 3.386 0 0 0 3.398-3.378M183.875 269.383a3.875 3.875 0 1 0-7.703.844 3.875 3.875 0 0 0 7.703-.844M166.92 271.326a4.357 4.357 0 1 0-8.501 1.912 4.357 4.357 0 0 0 8.501-1.912M149.583 276.35a4.84 4.84 0 1 0-9.15 3.168 4.842 4.842 0 0 0 9.15-3.168M132.348 284.543a5.326 5.326 0 1 0-9.611 4.591 5.326 5.326 0 0 0 9.611-4.591M115.711 295.938a5.809 5.809 0 1 0-9.857 6.148 5.808 5.808 0 0 0 8.003 1.855 5.807 5.807 0 0 0 1.854-8.003M100.183 310.479a6.295 6.295 0 0 0-9.868 7.816 6.295 6.295 0 0 0 9.868-7.816M86.259 328.05a6.778 6.778 0 1 0-9.615 9.553 6.778 6.778 0 0 0 9.615-9.553M260.387 340.828ZM257.468 328.814a.485.485 0 1 0-.841-.48.485.485 0 0 0 .841.48M251.896 317.605a.968.968 0 1 0-1.778-.768.968.968 0 0 0 1.778.768M243.832 307.639a1.451 1.451 0 1 0-2.778-.844 1.451 1.451 0 0 0 2.778.844M233.498 299.326a1.937 1.937 0 1 0-3.81-.702 1.937 1.937 0 0 0 3.81.702M221.18 293.041a2.42 2.42 0 1 0-2.586 2.244 2.421 2.421 0 0 0 2.586-2.244M207.213 289.113a2.906 2.906 0 0 0-5.805.241 2.905 2.905 0 0 0 5.805-.241M191.985 287.818a3.389 3.389 0 1 0-6.697 1.037 3.389 3.389 0 0 0 6.697-1.037M175.924 289.379a3.875 3.875 0 0 0-7.475 2.035 3.876 3.876 0 0 0 4.755 2.721 3.876 3.876 0 0 0 2.72-4.756M159.481 293.949a4.356 4.356 0 1 0-8.096 3.219 4.356 4.356 0 0 0 8.096-3.219M143.144 301.623a4.843 4.843 0 0 0-8.542 4.561 4.842 4.842 0 0 0 8.542-4.561M127.402 312.412a5.326 5.326 0 1 0-8.773 6.04 5.326 5.326 0 0 0 8.773-6.04M112.754 326.268a5.81 5.81 0 1 0-8.775 7.615 5.81 5.81 0 0 0 8.775-7.615M99.691 343.062a6.294 6.294 0 1 0-8.522 9.26 6.294 6.294 0 0 0 8.522-9.26M88.688 362.594a6.78 6.78 0 0 0-9.473 1.468 6.778 6.778 0 1 0 9.473-1.468M262.67 347.974ZM257.908 336.565a.484.484 0 1 0-.904-.343.484.484 0 0 0 .904.343M250.652 326.366a.97.97 0 1 0-1.88-.478.97.97 0 0 0 1.88.478M241.128 317.785a1.454 1.454 0 0 0-2.878-.4 1.452 1.452 0 0 0 2.878.4M229.62 311.191a1.937 1.937 0 1 0-3.872-.1 1.937 1.937 0 0 0 3.872.1M216.471 306.908a2.42 2.42 0 0 0-2.621-2.201 2.42 2.42 0 1 0 .418 4.824 2.424 2.424 0 0 0 2.203-2.623M202.061 305.215a2.904 2.904 0 1 0-5.695 1.143 2.904 2.904 0 0 0 5.695-1.143M186.818 306.316a3.388 3.388 0 1 0-6.452 2.075 3.388 3.388 0 1 0 6.452-2.075M171.198 310.371a3.872 3.872 0 1 0-7.063 3.18 3.874 3.874 0 1 0 7.063-3.18M155.674 317.459a4.356 4.356 0 1 0-7.495 4.445 4.357 4.357 0 1 0 7.495-4.445M140.737 327.592a4.84 4.84 0 1 0-7.723 5.842 4.842 4.842 0 0 0 7.723-5.842M126.877 340.712a5.325 5.325 0 1 0-7.722 7.336 5.325 5.325 0 0 0 7.722-7.336M114.577 356.689a5.81 5.81 0 1 0-7.476 8.895 5.81 5.81 0 0 0 7.476-8.895M104.302 375.319a6.294 6.294 0 1 0-6.969 10.482 6.294 6.294 0 0 0 6.969-10.482M96.49 396.333a6.779 6.779 0 0 0-9.127 2.931 6.779 6.779 0 0 0 12.058 6.194 6.776 6.776 0 0 0-2.931-9.125M266.043 354.676ZM259.555 344.152a.484.484 0 1 0-.948-.198.484.484 0 0 0 .948.198M250.793 335.213a.968.968 0 1 0-1.93-.179.968.968 0 0 0 1.93.179M240.043 328.227a1.453 1.453 0 1 0-2.905.057 1.453 1.453 0 0 0 2.905-.057M227.646 323.516a1.935 1.935 0 1 0-3.839.505 1.935 1.935 0 1 0 3.839-.505M213.988 321.344a2.419 2.419 0 0 0-2.933-1.766 2.42 2.42 0 1 0 2.933 1.766M199.491 321.924a2.904 2.904 0 1 0-1.711 3.734 2.906 2.906 0 0 0 1.711-3.734M184.608 325.397a3.389 3.389 0 1 0-1.495 4.554 3.39 3.39 0 0 0 1.495-4.554M169.814 331.844a3.873 3.873 0 1 0-6.477 4.247 3.873 3.873 0 0 0 6.477-4.247M155.591 341.274a4.357 4.357 0 1 0-6.708 5.563 4.357 4.357 0 0 0 6.708-5.563M142.424 353.62a4.84 4.84 0 1 0-6.715 6.976 4.843 4.843 0 0 0 6.715-6.976M130.787 368.746a5.324 5.324 0 1 0-6.48 8.452 5.325 5.325 0 1 0 6.48-8.452M121.137 386.45a5.809 5.809 0 1 0-5.992 9.954 5.81 5.81 0 0 0 5.992-9.954M113.902 406.458a6.294 6.294 0 1 0-5.241 11.443 6.294 6.294 0 0 0 5.241-11.443M109.475 428.434a6.778 6.778 0 1 0-4.233 12.878 6.777 6.777 0 1 0 4.233-12.878M270.423 360.767ZM262.368 351.388a.484.484 0 1 0-.967-.049.484.484 0 0 0 .967.049M252.316 343.93a.97.97 0 0 0-1.933.124.969.969 0 0 0 1.933-.124M240.605 338.711a1.45 1.45 0 0 0-1.683-1.174 1.45 1.45 0 1 0 .509 2.859 1.45 1.45 0 0 0 1.174-1.685M227.625 335.997a1.937 1.937 0 1 0-3.714 1.101 1.937 1.937 0 0 0 3.714-1.101M213.795 335.988a2.421 2.421 0 1 0-4.458 1.89 2.421 2.421 0 0 0 4.458-1.89M199.566 338.828a2.904 2.904 0 1 0-5.062 2.849 2.904 2.904 0 0 0 5.062-2.849M185.411 344.588a3.389 3.389 0 1 0-5.496 3.965 3.389 3.389 0 0 0 5.496-3.965M171.809 353.27a3.875 3.875 0 1 0-.264 5.473 3.876 3.876 0 0 0 .264-5.473M159.234 364.808a4.357 4.357 0 1 0-5.753 6.544 4.357 4.357 0 0 0 5.753-6.544M148.16 379.062a4.842 4.842 0 1 0-5.54 7.943 4.842 4.842 0 0 0 5.54-7.943M139.033 395.823a5.326 5.326 0 1 0-5.078 9.363 5.326 5.326 0 0 0 5.078-9.363M132.271 414.818a5.81 5.81 0 1 0-4.361 10.769 5.81 5.81 0 0 0 4.361-10.769M128.256 435.711a6.295 6.295 0 0 0-3.389 12.123 6.296 6.296 0 0 0 7.757-4.367 6.295 6.295 0 0 0-4.368-7.756M127.32 458.11a6.778 6.778 0 1 0-2.165 13.381 6.778 6.778 0 0 0 2.165-13.381M275.701 366.098ZM266.279 358.094a.484.484 0 1 0-.962.104.484.484 0 0 0 .962-.104M255.184 352.3a.968.968 0 1 0-1.889.427.968.968 0 0 0 1.889-.427M242.802 348.979a1.452 1.452 0 1 0-2.744.949 1.452 1.452 0 0 0 2.744-.949M229.555 348.328a1.937 1.937 0 1 0-3.495 1.67 1.937 1.937 0 0 0 3.495-1.67M215.895 350.483a2.421 2.421 0 1 0-4.108 2.563 2.421 2.421 0 0 0 4.108-2.563M202.286 355.514a2.904 2.904 0 1 0-4.554 3.605 2.904 2.904 0 0 0 4.554-3.605M189.205 363.417a3.388 3.388 0 1 0-4.807 4.777 3.388 3.388 0 1 0 4.807-4.777M177.129 374.121a3.873 3.873 0 1 0-4.85 6.04 3.873 3.873 0 0 0 4.85-6.04M166.514 387.484a4.358 4.358 0 1 0-4.659 7.362 4.358 4.358 0 0 0 4.659-7.362M157.807 403.294a4.841 4.841 0 1 0-4.232 8.71 4.841 4.841 0 0 0 4.232-8.71M151.413 421.277a5.326 5.326 0 1 0-3.55 10.043 5.326 5.326 0 0 0 3.55-10.043M147.707 441.095a5.81 5.81 0 0 0-2.623 11.32 5.81 5.81 0 0 0 2.623-11.32M147.01 462.359a6.294 6.294 0 1 0-1.451 12.503 6.294 6.294 0 0 0 1.451-12.503M149.589 484.628a6.783 6.783 0 0 0-6.802 6.757 6.778 6.778 0 1 0 6.802-6.757M281.75 370.538ZM271.191 364.107a.483.483 0 1 0-.933.254.483.483 0 1 0 .933-.254M259.326 360.12a.969.969 0 1 0-1.8.717.969.969 0 0 0 1.8-.717M246.576 358.776a1.453 1.453 0 1 0-2.563 1.368 1.453 1.453 0 0 0 2.563-1.368M233.391 360.205a1.936 1.936 0 1 0-3.19 2.193 1.936 1.936 0 0 0 3.19-2.193M220.236 364.47a2.42 2.42 0 1 0-3.656 3.174 2.42 2.42 0 0 0 3.656-3.174M207.582 371.568a2.904 2.904 0 1 0-3.932 4.274 2.904 2.904 0 0 0 3.932-4.274M195.898 381.42a3.388 3.388 0 1 0-4 5.47 3.388 3.388 0 1 0 4-5.47M185.645 393.881a3.873 3.873 0 1 0-3.845 6.726 3.873 3.873 0 0 0 3.845-6.726M177.252 408.741a4.358 4.358 0 1 0-3.45 8 4.358 4.358 0 0 0 3.45-8M171.125 425.719a4.842 4.842 0 1 0-2.817 9.264 4.842 4.842 0 0 0 2.817-9.264M167.623 444.48a5.326 5.326 0 1 0-1.936 10.475 5.326 5.326 0 0 0 1.936-10.475M167.063 464.634a5.81 5.81 0 1 0-.82 11.589 5.81 5.81 0 0 0 .82-11.589M169.7 485.746a6.294 6.294 0 1 0 .524 12.578 6.294 6.294 0 0 0-.524-12.578M175.731 507.337a6.78 6.78 0 1 0 2.078 13.395 6.78 6.78 0 0 0-2.078-13.395M288.418 373.976ZM276.982 369.276a.482.482 0 1 0-.881.397.483.483 0 1 0 .881-.397M264.641 367.195a.969.969 0 1 0-1.666.99.969.969 0 0 0 1.666-.99M251.838 367.861a1.452 1.452 0 1 0-2.316 1.753 1.452 1.452 0 0 0 2.316-1.753M239.038 371.336a1.937 1.937 0 1 0-2.809 2.667 1.937 1.937 0 0 0 2.809-2.667M226.712 377.607a2.42 2.42 0 0 0-3.41.296 2.42 2.42 0 1 0 3.41-.296M215.324 386.597a2.905 2.905 0 1 0-3.217 4.837 2.905 2.905 0 0 0 3.217-4.837M205.326 398.156a3.386 3.386 0 0 0-4.562 1.466 3.386 3.386 0 0 0 1.466 4.561c1.666.857 3.708.2 4.563-1.465a3.387 3.387 0 0 0-1.467-4.562M197.148 412.068a3.873 3.873 0 1 0-2.747 7.242 3.873 3.873 0 0 0 2.747-7.242M191.183 428.056a4.358 4.358 0 1 0-2.156 8.444 4.358 4.358 0 0 0 2.156-8.444M187.787 445.784a4.842 4.842 0 1 0-1.333 9.591 4.842 4.842 0 0 0 1.333-9.591M187.264 464.861a5.327 5.327 0 0 0-5.461 5.187 5.325 5.325 0 1 0 5.461-5.187M189.862 484.856a5.81 5.81 0 1 0 1.004 11.576 5.81 5.81 0 0 0-1.004-11.576M195.771 505.294a6.293 6.293 0 1 0 2.483 12.34 6.294 6.294 0 0 0-2.483-12.34M205.105 525.677a6.778 6.778 0 1 0 4.146 12.905 6.778 6.778 0 0 0-4.146-12.905M295.541 376.33ZM283.512 373.476a.483.483 0 1 0-.81.528.483.483 0 0 0 .81-.528M270.996 373.351a.968.968 0 1 0-1.489 1.237.968.968 0 0 0 1.489-1.237M258.455 376.013a1.452 1.452 0 1 0-2.014 2.092 1.452 1.452 0 0 0 2.014-2.092M246.357 381.446A1.936 1.936 0 1 0 244 384.52c.85.65 2.064.49 2.716-.358a1.939 1.939 0 0 0-.359-2.716M235.164 389.569a2.419 2.419 0 0 0-3.322.825 2.42 2.42 0 1 0 4.147 2.497 2.42 2.42 0 0 0-.825-3.322M225.322 400.23a2.903 2.903 0 1 0-2.42 5.28 2.904 2.904 0 1 0 2.42-5.28M217.256 413.209a3.389 3.389 0 1 0-2.115 6.44 3.389 3.389 0 0 0 2.115-6.44M211.354 428.229a3.874 3.874 0 1 0 3.003 4.583 3.876 3.876 0 0 0-3.003-4.583M207.963 444.955a4.356 4.356 0 1 0 3.934 4.743 4.356 4.356 0 0 0-3.934-4.743M207.383 462.996a4.84 4.84 0 1 0 .185 9.68 4.841 4.841 0 0 0-.185-9.68M209.85 481.919a5.325 5.325 0 1 0 5.977 4.582 5.328 5.328 0 0 0-5.977-4.582M215.545 501.261a5.81 5.81 0 1 0 2.803 11.277 5.81 5.81 0 0 0-2.803-11.277M224.577 520.525a6.294 6.294 0 1 0 4.385 11.8 6.294 6.294 0 0 0-4.385-11.8M236.985 539.196a6.779 6.779 0 1 0 6.114 12.097 6.779 6.779 0 0 0-6.114-12.097M302.945 377.54ZM290.618 376.603a.483.483 0 1 0-.716.65.483.483 0 1 0 .716-.65M278.236 378.438a.967.967 0 1 0-1.278 1.453.967.967 0 0 0 1.278-1.453M266.267 383.028a1.454 1.454 0 0 0-1.663 2.383 1.454 1.454 0 0 0 1.663-2.383M255.167 390.288a1.936 1.936 0 1 0-1.847 3.404 1.936 1.936 0 0 0 1.847-3.404M245.383 400.06a2.422 2.422 0 1 0-1.817 4.49 2.422 2.422 0 0 0 1.817-4.49M237.33 412.129a2.906 2.906 0 1 0 2.016 3.58 2.907 2.907 0 0 0-2.016-3.58M231.393 426.212a3.388 3.388 0 1 0-1.082 6.69 3.388 3.388 0 0 0 1.082-6.69M227.914 441.97a3.874 3.874 0 1 0-.372 7.736 3.874 3.874 0 0 0 .372-7.736M227.182 459.02a4.359 4.359 0 0 0-4.071 4.626 4.357 4.357 0 1 0 4.071-4.626M229.43 476.929a4.842 4.842 0 1 0 1.698 9.533 4.842 4.842 0 0 0-1.698-9.533M234.827 495.235a5.326 5.326 0 1 0 3.029 10.21 5.326 5.326 0 0 0-3.029-10.21M243.478 513.448a5.809 5.809 0 1 0 4.532 10.698 5.81 5.81 0 0 0-4.532-10.698M255.412 531.061a6.294 6.294 0 1 0 6.177 10.967 6.294 6.294 0 0 0-6.177-10.967M270.589 547.561a6.778 6.778 0 1 0 7.93 10.994 6.778 6.778 0 0 0-7.93-10.994M310.447 377.577ZM298.125 378.58a.484.484 0 1 0-.606.756.484.484 0 0 0 .606-.756M286.184 382.329a.968.968 0 1 0-1.036 1.635.968.968 0 0 0 1.036-1.635M275.079 388.735a1.451 1.451 0 0 0-1.94.673 1.452 1.452 0 1 0 1.94-.673M265.252 397.642a1.937 1.937 0 1 0-1.292 3.652 1.937 1.937 0 0 0 1.292-3.652M257.116 408.826a2.421 2.421 0 1 0-1.091 4.715 2.421 2.421 0 0 0 1.091-4.715M251.051 422.005a2.906 2.906 0 0 0-3.221 2.55 2.906 2.906 0 1 0 3.221-2.55M247.391 436.843a3.389 3.389 0 1 0-.025 6.777 3.389 3.389 0 0 0 .025-6.777M246.419 452.952a3.873 3.873 0 1 0 .842 7.7 3.873 3.873 0 0 0-.842-7.7M248.362 469.907a4.357 4.357 0 0 0 1.911 8.501 4.356 4.356 0 1 0-1.911-8.501M253.385 487.244a4.84 4.84 0 0 0-2.991 6.158 4.84 4.84 0 1 0 2.991-6.158M261.58 504.479a5.326 5.326 0 1 0 4.59 9.609 5.326 5.326 0 0 0-4.59-9.609M272.973 521.115a5.808 5.808 0 1 0 6.149 9.857 5.809 5.809 0 1 0-6.149-9.857M287.516 536.643a6.293 6.293 0 1 0 7.815 9.867 6.293 6.293 0 0 0-7.815-9.867M305.087 550.567a6.78 6.78 0 0 0-.032 9.586 6.78 6.78 0 0 0 9.617-9.555 6.777 6.777 0 0 0-9.585-.031M317.863 376.439ZM305.85 379.358a.484.484 0 1 0-.482.839.484.484 0 0 0 .482-.839M294.642 384.929a.968.968 0 1 0-.767 1.778.968.968 0 0 0 .767-1.778M284.676 392.994a1.453 1.453 0 1 0-.846 2.78 1.453 1.453 0 0 0 .846-2.78M276.363 403.328a1.937 1.937 0 1 0-.706 3.806 1.937 1.937 0 0 0 .706-3.806M270.077 415.646a2.42 2.42 0 1 0-.34 4.83 2.42 2.42 0 0 0 .34-4.83M266.148 429.613a2.905 2.905 0 1 0 .242 5.806 2.905 2.905 0 0 0-.242-5.806M264.854 444.84a3.39 3.39 0 1 0 1.038 6.7 3.39 3.39 0 0 0-1.038-6.7M266.414 460.903a3.874 3.874 0 1 0 2.038 7.475 3.874 3.874 0 0 0-2.038-7.475M270.986 477.344a4.357 4.357 0 1 0 3.22 8.098 4.357 4.357 0 0 0-3.22-8.098M278.658 493.682a4.842 4.842 0 1 0 4.562 8.54 4.842 4.842 0 0 0-4.562-8.54M289.449 509.423a5.325 5.325 0 1 0 6.036 8.776 5.325 5.325 0 0 0-6.036-8.776M303.305 524.072a5.81 5.81 0 1 0 7.615 8.775 5.81 5.81 0 0 0-7.615-8.775M320.098 537.135a6.293 6.293 0 1 0 9.261 8.524 6.294 6.294 0 1 0-9.261-8.524M339.63 548.138a6.779 6.779 0 1 0 10.942 8.005 6.779 6.779 0 0 0-10.942-8.005M325.01 374.157ZM313.602 378.918a.484.484 0 1 0-.345.904.484.484 0 0 0 .345-.904M303.402 386.174a.967.967 0 1 0-.479 1.876.97.97 0 0 0 1.179-.698.97.97 0 0 0-.7-1.178M294.82 395.698a1.453 1.453 0 1 0-.396 2.878 1.453 1.453 0 0 0 .396-2.878M288.227 407.206a1.937 1.937 0 1 0-.102 3.872 1.937 1.937 0 0 0 .102-3.872M283.945 420.356a2.42 2.42 0 1 0 .418 4.824 2.42 2.42 0 0 0-.418-4.824M282.25 434.765a2.904 2.904 0 1 0 1.145 5.696 2.904 2.904 0 0 0-1.145-5.696M283.354 450.007a3.388 3.388 0 1 0 2.072 6.452 3.388 3.388 0 1 0-2.072-6.452M287.407 465.627a3.873 3.873 0 1 0 3.18 7.065 3.873 3.873 0 0 0-3.18-7.065M294.495 481.153a4.356 4.356 0 1 0 4.445 7.494 4.358 4.358 0 1 0-4.445-7.494M304.629 496.088a4.842 4.842 0 1 0 5.84 7.724 4.842 4.842 0 0 0-5.84-7.724M317.748 509.949a5.326 5.326 0 1 0 7.34 7.721 5.326 5.326 0 0 0-7.34-7.721M333.725 522.249a5.809 5.809 0 1 0 8.894 7.475 5.809 5.809 0 1 0-8.894-7.475M352.355 532.524a6.295 6.295 0 0 0 1.756 8.726 6.295 6.295 0 0 0 6.969-10.484 6.292 6.292 0 0 0-8.725 1.758M373.368 540.335a6.778 6.778 0 1 0 12.057 6.195 6.778 6.778 0 0 0-12.057-6.195M331.712 370.783ZM321.188 377.271a.483.483 0 1 0-.198.947.483.483 0 1 0 .198-.947M312.25 386.034a.969.969 0 1 0-.181 1.93.969.969 0 0 0 .181-1.93M305.264 396.783a1.451 1.451 0 1 0 1.48 1.424 1.452 1.452 0 0 0-1.48-1.424M300.551 409.179a1.937 1.937 0 1 0 .508 3.84 1.937 1.937 0 0 0-.508-3.84M298.379 422.837a2.423 2.423 0 0 0-1.766 2.934 2.422 2.422 0 1 0 1.766-2.934M298.959 437.334a2.906 2.906 0 1 0 2.023 5.445 2.906 2.906 0 0 0-2.023-5.445M302.434 452.217a3.388 3.388 0 1 0 3.055 6.048 3.388 3.388 0 0 0-3.055-6.048M308.881 467.011a3.873 3.873 0 1 0 4.246 6.479 3.873 3.873 0 0 0-4.246-6.479M318.31 481.235a4.357 4.357 0 1 0 5.563 6.708 4.357 4.357 0 0 0-5.563-6.708M330.656 494.402a4.842 4.842 0 1 0 6.976 6.716 4.842 4.842 0 0 0-6.976-6.716M345.782 506.04a5.327 5.327 0 0 0 .987 7.466 5.323 5.323 0 0 0 7.465-.987 5.325 5.325 0 1 0-8.452-6.479M363.486 515.689a5.81 5.81 0 1 0 9.955 5.993 5.81 5.81 0 0 0-9.955-5.993M383.494 522.923a6.295 6.295 0 0 0 11.443 5.244 6.295 6.295 0 0 0-11.443-5.244M405.471 527.352a6.78 6.78 0 1 0 12.879 4.231 6.778 6.778 0 0 0-12.879-4.231M337.803 366.403ZM328.424 374.458a.484.484 0 1 0-.049.967.484.484 0 0 0 .049-.967M320.966 384.51a.965.965 0 0 0-.903 1.028.967.967 0 1 0 1.931-.123.967.967 0 0 0-1.028-.905M315.748 396.219a1.453 1.453 0 1 0 .509 2.86 1.453 1.453 0 0 0-.509-2.86M313.033 409.202a1.936 1.936 0 1 0 1.099 3.712 1.936 1.936 0 0 0-1.099-3.712M313.024 423.031a2.422 2.422 0 1 0 1.89 4.46 2.422 2.422 0 0 0-1.89-4.46M315.864 437.259a2.906 2.906 0 0 0 2.851 5.063 2.904 2.904 0 0 0-2.851-5.063M321.624 451.415a3.388 3.388 0 1 0 4.731.764 3.39 3.39 0 0 0-4.731-.764M330.307 465.018a3.873 3.873 0 1 0 5.206 5.735 3.873 3.873 0 0 0-5.206-5.735M341.845 477.592a4.359 4.359 0 0 0 .393 6.149 4.357 4.357 0 1 0-.393-6.149M356.099 488.666a4.842 4.842 0 1 0 7.939 5.54 4.842 4.842 0 0 0-7.939-5.54M372.859 497.793a5.326 5.326 0 1 0 9.364 5.078 5.326 5.326 0 0 0-9.364-5.078M391.854 504.555a5.81 5.81 0 1 0 10.77 4.359 5.81 5.81 0 0 0-10.77-4.359M412.747 508.57a6.295 6.295 0 1 0 12.121 3.388 6.295 6.295 0 0 0-12.121-3.388M435.146 509.506a6.777 6.777 0 1 0 13.381 2.165 6.777 6.777 0 1 0-13.381-2.165M343.135 361.124ZM335.131 370.546a.483.483 0 1 0 .105.962.483.483 0 1 0-.105-.962M329.337 381.642a.967.967 0 1 0 .423 1.888.967.967 0 0 0-.423-1.888M326.015 394.024a1.454 1.454 0 0 0 .95 2.746 1.453 1.453 0 0 0-.95-2.746M325.363 407.271a1.935 1.935 0 0 0-.912 2.582 1.935 1.935 0 1 0 3.494-1.669 1.935 1.935 0 0 0-2.582-.913M327.519 420.931a2.422 2.422 0 0 0 2.561 4.109 2.421 2.421 0 0 0-2.561-4.109M332.55 434.54a2.904 2.904 0 1 0 3.606 4.554 2.904 2.904 0 1 0-3.606-4.554M340.453 447.621a3.387 3.387 0 1 0 4.776 4.806 3.387 3.387 0 1 0-4.776-4.806M351.156 459.698a3.874 3.874 0 1 0 6.044 4.849 3.874 3.874 0 0 0-6.044-4.849M364.52 470.312a4.356 4.356 0 1 0 7.363 4.66 4.356 4.356 0 1 0-7.363-4.66M380.33 479.02a4.842 4.842 0 1 0 8.71 4.23 4.842 4.842 0 0 0-8.71-4.23M398.313 485.413a5.323 5.323 0 0 0 3.246 6.795 5.326 5.326 0 1 0-3.246-6.795M418.132 489.12a5.808 5.808 0 0 0 4.347 6.97 5.81 5.81 0 1 0-4.347-6.97M439.396 489.817a6.294 6.294 0 1 0 6.976-5.527 6.293 6.293 0 0 0-6.976 5.527M461.665 487.238a6.779 6.779 0 1 0 13.554.044 6.779 6.779 0 0 0-13.554-.044M347.574 355.076ZM341.143 365.635a.483.483 0 1 0 .253.934.484.484 0 0 0-.253-.934M337.156 377.5a.968.968 0 1 0 .716 1.8.968.968 0 0 0-.716-1.8M335.812 390.249a1.452 1.452 0 1 0 1.367 2.562 1.452 1.452 0 0 0-1.367-2.562M337.241 403.435a1.937 1.937 0 1 0 2.196 3.191 1.937 1.937 0 0 0-2.196-3.191M341.507 416.59a2.419 2.419 0 0 0-.241 3.414 2.42 2.42 0 1 0 3.656-3.172 2.42 2.42 0 0 0-3.415-.242M348.604 429.244a2.906 2.906 0 0 0 4.275 3.934 2.906 2.906 0 0 0-.17-4.105 2.906 2.906 0 0 0-4.105.171M358.457 440.927a3.39 3.39 0 1 0 5.47 4.003 3.39 3.39 0 0 0-5.47-4.003M370.918 451.181a3.873 3.873 0 1 0 6.725 3.845 3.873 3.873 0 0 0-6.725-3.845M385.777 459.575a4.356 4.356 0 1 0 8.001 3.45 4.357 4.357 0 1 0-8.001-3.45M402.755 465.702a4.842 4.842 0 1 0 9.265 2.815 4.842 4.842 0 0 0-9.265-2.815M421.516 469.203a5.325 5.325 0 1 0 10.472 1.936 5.325 5.325 0 1 0-10.472-1.936M441.671 469.763a5.807 5.807 0 0 0 5.384 6.205 5.811 5.811 0 0 0 6.206-5.385 5.81 5.81 0 0 0-5.386-6.205 5.808 5.808 0 0 0-6.204 5.385M462.782 467.125a6.295 6.295 0 1 0 12.578-.522 6.295 6.295 0 0 0-12.578.522M484.374 461.094a6.778 6.778 0 1 0 13.395-2.077 6.778 6.778 0 0 0-13.395 2.077M351.012 348.409ZM346.313 359.843c-.245.11-.354.396-.245.64a.486.486 0 0 0 .884-.398.482.482 0 0 0-.639-.242M344.23 372.186a.966.966 0 0 0-.337 1.326.97.97 0 0 0 1.666-.988.971.971 0 0 0-1.329-.338M344.897 384.988a1.452 1.452 0 1 0 1.752 2.319 1.452 1.452 0 0 0-1.752-2.319M348.372 397.788a1.936 1.936 0 1 0 2.666 2.808 1.936 1.936 0 0 0-2.666-2.808M354.643 410.114a2.42 2.42 0 1 0 3.707 3.114 2.42 2.42 0 0 0-3.707-3.114M363.633 421.5a2.905 2.905 0 1 0 4.839 3.218 2.905 2.905 0 0 0-4.839-3.218M375.191 431.5a3.388 3.388 0 1 0 6.03 3.095 3.388 3.388 0 0 0-6.03-3.095M389.104 439.678a3.873 3.873 0 1 0 7.243 2.746 3.873 3.873 0 0 0-7.243-2.746M405.092 445.644a4.357 4.357 0 1 0 8.444 2.155 4.357 4.357 0 0 0-8.444-2.155M422.82 449.04a4.838 4.838 0 0 0 4.129 5.46 4.84 4.84 0 1 0-4.129-5.46M441.896 449.563a5.326 5.326 0 1 0 10.65.271 5.326 5.326 0 0 0-10.65-.271M461.893 446.963a5.807 5.807 0 0 0 6.289 5.287 5.81 5.81 0 0 0-1.004-11.576 5.807 5.807 0 0 0-5.285 6.289M482.331 441.056a6.295 6.295 0 0 0 7.411 4.928 6.295 6.295 0 0 0-2.484-12.341 6.296 6.296 0 0 0-4.927 7.413M502.713 431.721a6.779 6.779 0 1 0 12.908-4.146 6.779 6.779 0 0 0-12.908 4.146M353.365 341.285ZM350.512 353.314a.485.485 0 1 0 .532.81.485.485 0 0 0-.532-.81M350.387 365.83a.968.968 0 1 0 1.236 1.489.968.968 0 0 0-1.236-1.489M353.049 378.371a1.45 1.45 0 0 0 .039 2.053 1.452 1.452 0 1 0-.039-2.053M358.482 390.469a1.937 1.937 0 1 0 3.076 2.356 1.937 1.937 0 0 0-3.076-2.356M366.604 401.663a2.42 2.42 0 1 0 4.15 2.495 2.42 2.42 0 0 0-4.15-2.495M377.266 411.503a2.905 2.905 0 1 0 5.281 2.422 2.905 2.905 0 0 0-5.281-2.422M390.246 419.57a3.387 3.387 0 1 0 6.438 2.115 3.388 3.388 0 1 0-6.438-2.115M405.266 425.472a3.873 3.873 0 1 0 7.583 1.579 3.873 3.873 0 0 0-7.583-1.579M421.99 428.863a4.358 4.358 0 1 0 8.68.805 4.358 4.358 0 0 0-8.68-.805M440.031 429.444a4.842 4.842 0 1 0 9.682-.186 4.842 4.842 0 0 0-9.682.186M458.956 426.976a5.326 5.326 0 1 0 10.56-1.396 5.326 5.326 0 0 0-10.56 1.396M478.298 421.281a5.81 5.81 0 1 0 11.275-2.801 5.81 5.81 0 0 0-11.275 2.801M497.561 412.249a6.293 6.293 0 1 0 11.798-4.384 6.294 6.294 0 1 0-11.798 4.384M516.232 399.84a6.777 6.777 0 1 0 12.098-6.114 6.777 6.777 0 1 0-12.098 6.114M354.576 333.88ZM353.639 346.208a.484.484 0 1 0 .65.717.484.484 0 0 0-.65-.717M355.474 358.589a.968.968 0 1 0 1.453 1.278.968.968 0 0 0-1.453-1.278M360.064 370.559a1.452 1.452 0 1 0 2.383 1.664 1.452 1.452 0 0 0-2.383-1.664M367.324 381.659a1.936 1.936 0 1 0 3.403 1.847 1.936 1.936 0 0 0-3.403-1.847M377.097 391.444a2.421 2.421 0 1 0 4.489 1.816 2.421 2.421 0 0 0-4.489-1.816M389.166 399.496a2.905 2.905 0 1 0 5.595 1.565 2.905 2.905 0 0 0-5.595-1.565M403.248 405.433a3.39 3.39 0 1 0 6.691 1.083 3.39 3.39 0 0 0-6.691-1.083M419.006 408.913a3.874 3.874 0 1 0 7.738.37 3.874 3.874 0 0 0-7.738-.37M436.057 409.645a4.355 4.355 0 0 0 4.626 4.068 4.357 4.357 0 1 0-4.626-4.068M453.966 407.397a4.84 4.84 0 1 0 3.917-5.615 4.84 4.84 0 0 0-3.917 5.615M472.271 401.999a5.326 5.326 0 1 0 10.211-3.03 5.326 5.326 0 0 0-10.211 3.03M490.484 393.348a5.81 5.81 0 1 0 10.697-4.532 5.81 5.81 0 0 0-10.697 4.532M508.097 381.414a6.294 6.294 0 1 0 10.968-6.177 6.294 6.294 0 0 0-10.968 6.177M524.598 366.238a6.778 6.778 0 1 0 10.992-7.932 6.776 6.776 0 0 0-9.461-1.531 6.777 6.777 0 0 0-1.531 9.463M354.613 326.377ZM355.616 338.7a.482.482 0 0 0 .073.68.485.485 0 0 0 .607-.755.484.484 0 0 0-.68.075M359.365 350.642a.968.968 0 1 0 1.637 1.035.968.968 0 0 0-1.637-1.035M365.771 361.747a1.453 1.453 0 1 0 2.615 1.268 1.453 1.453 0 0 0-2.615-1.268M374.678 371.574a1.936 1.936 0 1 0 3.651 1.29 1.936 1.936 0 0 0-3.651-1.29M385.861 379.709a2.42 2.42 0 1 0 4.716 1.093 2.422 2.422 0 0 0-1.81-2.905 2.424 2.424 0 0 0-2.906 1.812M399.041 385.774a2.907 2.907 0 0 0 2.551 3.222 2.908 2.908 0 0 0 3.221-2.551 2.906 2.906 0 0 0-5.772-.671M413.879 389.435a3.388 3.388 0 1 0 6.777.023 3.388 3.388 0 0 0-6.777-.023M429.987 390.407a3.874 3.874 0 0 0 7.701-.842 3.876 3.876 0 0 0-4.27-3.431 3.877 3.877 0 0 0-3.431 4.273M446.941 388.463a4.358 4.358 0 0 0 8.502-1.912 4.357 4.357 0 1 0-8.502 1.912M464.279 383.441a4.841 4.841 0 1 0 9.15-3.168 4.841 4.841 0 0 0-9.15 3.168M481.516 375.247a5.324 5.324 0 0 0 7.099 2.509 5.322 5.322 0 0 0 2.511-7.099 5.325 5.325 0 1 0-9.61 4.59M498.15 363.853a5.81 5.81 0 1 0 1.855-8.004 5.809 5.809 0 0 0-1.855 8.004M513.68 349.31a6.292 6.292 0 0 0 8.84 1.026 6.293 6.293 0 0 0 1.027-8.841 6.293 6.293 0 1 0-9.867 7.815M527.603 331.739a6.778 6.778 0 1 0 9.617-9.555 6.778 6.778 0 0 0-9.617 9.555M353.476 318.963ZM356.395 330.975a.485.485 0 1 0 .84.483.485.485 0 0 0-.84-.483M361.965 342.184a.97.97 0 1 0 1.78.766.97.97 0 0 0-1.78-.766M370.029 352.151a1.452 1.452 0 1 0 2.78.841 1.452 1.452 0 0 0-2.78-.841M380.363 360.463a1.937 1.937 0 1 0 3.81.702 1.937 1.937 0 0 0-3.81-.702M392.682 366.749a2.421 2.421 0 1 0 4.83.34 2.421 2.421 0 0 0-4.83-.34M406.648 370.677a2.906 2.906 0 1 0 5.806-.242 2.906 2.906 0 0 0-5.806.242M421.877 371.972a3.388 3.388 0 1 0 6.696-1.038 3.387 3.387 0 0 0-3.868-2.83 3.387 3.387 0 0 0-2.828 3.868M437.938 370.412a3.874 3.874 0 0 0 7.474-2.037 3.872 3.872 0 1 0-7.474 2.037M454.381 365.839a4.356 4.356 0 1 0 8.098-3.217 4.357 4.357 0 1 0-8.098 3.217M470.719 358.167a4.84 4.84 0 1 0 8.541-4.56 4.842 4.842 0 0 0-8.541 4.56M486.46 347.377a5.324 5.324 0 1 0 8.774-6.037 5.325 5.325 0 1 0-8.774 6.037M501.108 333.522a5.81 5.81 0 1 0 8.776-7.615 5.81 5.81 0 0 0-8.776 7.615M514.172 316.729a6.294 6.294 0 1 0 8.521-9.265 6.294 6.294 0 0 0-8.521 9.265M525.174 297.195a6.778 6.778 0 1 0 8.006-10.94 6.778 6.778 0 0 0-8.006 10.94"/>
  </g>
</svg>